<svg xmlns="http://www.w3.org/2000/svg" viewBox="0 0 445.2 443.3">
  <g id="Layer_2" data-name="Layer 2">
    <g id="Layer_2-2" data-name="Layer 2">
      <g>
        <g>
          <path d="M142.2,132.1c-6.3,36.9,8.6,76.6,37.7,100.1,5.8,4.7,12.9,9,20.4,8s12.8-6.5,15.7-12.9,3.5-13.7,3.7-20.8c.4-15.6-1-31.4-6.7-46s-16-27.6-30.1-34.2-32.1-5.7-44.2,4.2" transform="translate(-0.8)" fill="#d3efdd"/>
          <path d="M141.1,131.9a104.9,104.9,0,0,0,6.3,59.6A106.8,106.8,0,0,0,163,218a98.8,98.8,0,0,0,10.3,11.1,62.3,62.3,0,0,0,12.9,9.9c4.9,2.7,10.6,4.3,16.2,2.9s9.3-4.4,12.4-8.5c7.2-9.4,7.2-22.4,7.1-33.8-.2-22.8-5.4-46.7-21.8-63.6a52.6,52.6,0,0,0-26.7-15.3,45.2,45.2,0,0,0-30,3.8,33.8,33.8,0,0,0-6.2,4.5c-1.7,1.5.6,4.7,2.6,3.3a39.6,39.6,0,0,1,26.4-7.8,44.3,44.3,0,0,1,25.9,10.4c16.7,13.6,23.6,35,25.1,55.8a168.4,168.4,0,0,1,.3,17.4c-.2,5.8-.8,11.6-2.9,17a22.5,22.5,0,0,1-8.3,10.7,15.9,15.9,0,0,1-13.6,1.6c-4.9-1.6-9.2-4.8-13.1-8.1a98.2,98.2,0,0,1-10.3-10.1,103.1,103.1,0,0,1-15.9-23.8,110.9,110.9,0,0,1-10.9-55.8c.2-2.4.4-4.8.8-7.2s-1.9-2-2.2-.5Z" transform="translate(-0.8)" fill="#d3efdd"/>
        </g>
        <g>
          <path d="M204.1,237.4l-3.4,13.7c3.2,3,8.9-.8,8.8-5.2s-3.7-7.7-7.6-9.7" transform="translate(-0.8)" fill="#d3efdd"/>
          <path d="M203,237.1c-1.2,4.5-2.4,9.1-3.7,13.6a1.7,1.7,0,0,0,.4,1.5c2.9,2.8,7.5,1.3,9.7-1.6s1.7-8.5-1.2-11.8a17.3,17.3,0,0,0-2.8-2.6c-1.1-.8-2.3-1.7-3.8-1.4a1.5,1.5,0,0,0-.9,2.1c.5,1.1,1.9,1.6,2.8,2.3a12.1,12.1,0,0,1,2.4,2.1,7.2,7.2,0,0,1,2,5.2c0-.2-.1.4-.1.4s-.1.4-.2.5a5.4,5.4,0,0,1-.5,1.1,4.9,4.9,0,0,1-1.7,1.5,4,4,0,0,1-2,.7,2.4,2.4,0,0,1-1.7-.6l.4,1.4,3-13.9c.4-1.3-1.7-1.9-2.1-.5Z" transform="translate(-0.8)" fill="#d3efdd"/>
        </g>
        <g>
          <path d="M147.6,58.2a81.4,81.4,0,0,0-12.2,61.3c.8,3.9,2.5,8.4,6.3,9.5,5.3,1.5,9.5-4.3,13.4-8.1,10.7-10.5,29.1-8.6,41.3.1s19.6,22.4,26.5,35.6c.4-17.9.8-36.1-3.7-53.4S204.7,69.1,189,60.5s-37.6-6.9-49.2,6.8" transform="translate(-0.8)" fill="#efeeea"/>
          <path d="M146.6,57.6a81.8,81.8,0,0,0-14.1,36.2,84.8,84.8,0,0,0-.2,19.5c.6,5.4,1.3,12.5,5.9,16.2a8.3,8.3,0,0,0,7.9,1.5c2.8-.9,5-2.9,7.1-4.9a49.4,49.4,0,0,1,5.7-5.5,22.2,22.2,0,0,1,7.1-3.4c10.3-3,21.9.3,30.2,6.7,11.2,8.8,17.8,21.8,24.3,34.1,1.4,2.6,5.1,1.3,5.2-1.4.5-24.4.9-50.1-10.7-72.4-4.9-9.3-11.7-17.7-20.4-23.6a47.5,47.5,0,0,0-28.1-8.2A44.9,44.9,0,0,0,150.3,56a29.4,29.4,0,0,0-12.5,10.1c-1.6,2.2,1.8,4.6,3.6,2.8A38.1,38.1,0,0,1,164,58.3a40.6,40.6,0,0,1,25.5,5.8c17.7,10.7,26.3,31.3,29.2,51,2.1,13.7,1.7,27.7,1.4,41.5l5.2-1.4c-5.8-11-12.1-22.4-21.2-31.2s-19.3-13-31-12.7a30.1,30.1,0,0,0-15.4,4.6,35.3,35.3,0,0,0-6.2,5.4c-1.8,1.9-3.6,4-6,5.2-5.2,2.5-7.3-4.2-8.1-8a80,80,0,0,1-1.5-18.9,81.9,81.9,0,0,1,12.7-40.8c.8-1.3-1.2-2.4-2-1.2Z" transform="translate(-0.8)" fill="#efeeea"/>
        </g>
        <g>
          <path d="M297.9,138.5c-16.3,9.3-22.7,30.5-20,49s12.5,35.2,22.2,51.3c29-6.1,53.6-29.8,60.6-58.6,3.2-12.8,2.5-27.9-6.6-37.5s-25.6-11.2-39.8-11.3c-6-.1-12.2-.2-17.9,1.9s-11,6.5-12,12.5" transform="translate(-0.8)" fill="#fffdf3"/>
          <path d="M297.5,137.8c-11.9,6.4-19,18.9-21.2,31.8-2.7,15.6,1.5,31,8,45.2A267.5,267.5,0,0,0,298.1,240a2.3,2.3,0,0,0,2.6,1,80.1,80.1,0,0,0,36.2-18.1A81.8,81.8,0,0,0,360.3,190c5.1-13,7.2-28.6,1-41.5a30,30,0,0,0-14.8-14.6c-6.5-3.1-13.6-4.3-20.8-4.9l-10.6-.4a88.5,88.5,0,0,0-12.6.5c-7.5,1-15.3,4.2-18.9,11.4a10.6,10.6,0,0,0-1.2,5.3c0,2.3,3.1,2.4,3.8.5a18,18,0,0,1,5.3-7.2,19.2,19.2,0,0,1,8.4-4,50.9,50.9,0,0,1,11.7-1l10.5.2c12.3.6,26.3,3.1,33.3,14.5s5,25.3,1.1,37a79.4,79.4,0,0,1-20.2,31.1A77,77,0,0,1,304,235.4l-4.5,1.2,2.6,1c-8.4-13.8-17-27.8-21-43.7-3.2-12.8-2.6-26.8,3.2-38.9a37.5,37.5,0,0,1,14-15.8c.9-.5.1-1.8-.8-1.4Z" transform="translate(-0.8)" fill="#fffdf3"/>
        </g>
        <g>
          <path d="M231,119.5c-6.9,14.2-6.4,30.7-5.8,46.5.4,12.5.9,25,1.4,37.5,2-7.3,8.4-12.6,15-16.2s14-6,20.2-10.3,11.6-11,11.4-18.6c-.3-10.5-10.5-17.7-20-22.3s-20.2-9.6-23.7-19.5" transform="translate(-0.8)" fill="#dbd0ce"/>
          <path d="M230.1,118.9c-4.7,9.4-6.4,20.1-6.7,30.5s.2,22.6.6,33.9l.8,20.2a1.8,1.8,0,0,0,3.5.5c2.6-8.7,10.9-13.7,18.6-17.4s17.9-7.7,23.8-15.7a20.5,20.5,0,0,0,4.3-12.1,18.9,18.9,0,0,0-3.8-11.2c-4.9-6.9-12.4-10.9-19.7-14.6s-16.5-8.3-20.1-16.9a2,2,0,0,0-3.8,1c2.5,7.9,9.8,12.9,16.8,16.7s15,6.8,20.9,12.6a19.1,19.1,0,0,1,5.8,9.7,15.8,15.8,0,0,1-2.5,11.6c-5.1,8.2-14.5,11.8-22.9,15.6s-17.9,9.8-20.9,19.7l3.5.5c-.4-11.7-.8-23.4-1.4-35s-1.1-21.2.3-31.7A57.8,57.8,0,0,1,232,120c.6-1.3-1.3-2.4-1.9-1.1Z" transform="translate(-0.8)" fill="#dbd0ce"/>
        </g>
        <g>
          <path d="M202.6,172.8a162.4,162.4,0,0,0,12.2,43.7" transform="translate(-0.8)" fill="#bfd8c7"/>
          <path d="M202.1,172.8a172.2,172.2,0,0,0,3.9,22.6c1,3.8,2,7.5,3.3,11.2s2.3,7.5,4.4,10.5a1.2,1.2,0,0,0,2.2-.9,26.7,26.7,0,0,0-1.9-5.4c-.7-1.8-1.3-3.5-2-5.2-1.3-3.6-2.6-7.2-3.7-10.8a172.6,172.6,0,0,1-5.2-22.1c-.1-.6-1.1-.5-1,.1Z" transform="translate(-0.8)" fill="#d3efdd"/>
        </g>
        <g>
          <path d="M212.9,142.4c-5.8,3.3-7.6,10.8-8.1,17.6a94.1,94.1,0,0,0,15.7,58.9,103.4,103.4,0,0,0-8.7-76.7" transform="translate(-0.8)" fill="#bfd8c7"/>
          <path d="M212.5,141.6c-9,5-9.5,17.9-9.4,26.9a93.8,93.8,0,0,0,6.6,33.9,90.9,90.9,0,0,0,9.1,17.5,1.9,1.9,0,0,0,3.5-.5,105.9,105.9,0,0,0-1.6-61.8,82.5,82.5,0,0,0-7.4-16.3c-1.2-1.9-3.9-.2-3,1.8,2.1,4.6,4.3,9.2,6,14a98.8,98.8,0,0,1,5.5,44.5,95.8,95.8,0,0,1-3.2,16.8l3.5-.4a97.3,97.3,0,0,1-13.3-30c-2.5-10.2-3.7-21.3-2.3-31.7.7-5,2.4-10.3,6.9-13.1,1-.7.1-2.2-.9-1.6Z" transform="translate(-0.8)" fill="#bfd8c7"/>
        </g>
        <g>
          <path d="M214,139.5a17,17,0,0,1,1.3-6.7c1.1-2,3.3-3.7,5.6-3.4a5.5,5.5,0,0,1,4.2,4.3,13,13,0,0,1-.3,6.2,38.9,38.9,0,0,1-4.1,10.1l-4.5-14.5" transform="translate(-0.8)" fill="#efeeea"/>
          <path d="M214.7,139.5c.3-2.7.7-5.9,3-7.8s4.1-.8,5.3,1.2.4,5.6-.4,8A41.7,41.7,0,0,1,219,149l3.7.5c-1.5-4.9-2.9-9.8-4.5-14.6-.9-2.5-4.8-1.5-4.1,1.2,1.5,4.8,3.1,9.6,4.7,14.4a2,2,0,0,0,3.7.5,42.2,42.2,0,0,0,4.1-10.9c.8-3.6.9-7.6-1.9-10.4s-6-2.1-8.5.1-2.9,6.3-3,9.7a.8.8,0,1,0,1.5,0Z" transform="translate(-0.8)" fill="#efeeea"/>
        </g>
        <g>
          <path d="M236.2,122.5a41.1,41.1,0,0,1,37.7,1.1c5.5,3.2,10.7,9,9,15.2-1.1,4-5.1,6.8-9.3,7.5s-8.4-.6-12.2-2.4c-10-4.7-17.7-13.3-25-21.6" transform="translate(-0.8)" fill="#efeeea"/>
          <path d="M236.2,123.4c1.8,0,3.4-.8,5.1-1.3a52.9,52.9,0,0,1,5.4-1.3,42.5,42.5,0,0,1,10.7-.4c6.8.7,14.4,3.1,19.4,7.9,2.3,2.1,4.4,5,4.3,8.3s-2.4,5.5-5.1,6.7c-6.9,3-14.9-1.6-20.4-5.5a63.6,63.6,0,0,1-9.2-8l-4.4-4.6c-1.4-1.6-2.7-3.6-4.7-4.6s-3.3.5-2.7,2.2a8.1,8.1,0,0,0,1.7,2.8l2.1,2.4c1.4,1.6,2.9,3.2,4.4,4.7a83.9,83.9,0,0,0,9.5,8.4c6.6,4.9,16,9.8,24.4,6.7a13.1,13.1,0,0,0,8.1-7.8c1.3-3.8.2-7.9-2-11.1-4.8-6.7-13.2-10.3-21.1-11.6a44.9,44.9,0,0,0-13.7-.2,39.5,39.5,0,0,0-6.8,1.6L238,120a5.2,5.2,0,0,0-2.6,2c-.5.6.1,1.4.8,1.4Z" transform="translate(-0.8)" fill="#efeeea"/>
        </g>
        <g>
          <path d="M288.2,140.8a50.3,50.3,0,0,1,5.4,39" transform="translate(-0.8)" fill="#f7f4e7"/>
          <path d="M287.3,141.3a52.7,52.7,0,0,1,6,19.1,55.7,55.7,0,0,1,0,10,36.2,36.2,0,0,1-.6,4.6l-.6,2.5a8.2,8.2,0,0,0,.1,2.7,1.4,1.4,0,0,0,2.4.6,6.2,6.2,0,0,0,1.4-2.5,20.5,20.5,0,0,0,.5-2.4,50.6,50.6,0,0,0,.6-5.3,47.7,47.7,0,0,0-.5-10.7,48.3,48.3,0,0,0-7.5-19.7,1.1,1.1,0,0,0-1.8,1.1Z" transform="translate(-0.8)" fill="#f7f4e7"/>
        </g>
        <g>
          <path d="M283.3,139.2c6.9,2,9.6,10,11.4,17,1.1,4.3,2.1,8.7,1.3,13s-4.3,8.5-8.7,8.6-8.2-3.8-9.2-8,.1-8.8,1.5-13A92.4,92.4,0,0,1,292,132.1" transform="translate(-0.8)" fill="#f7f4e7"/>
          <path d="M283.1,139.9c5.1,2.1,7.5,7.3,9,12.4a88.6,88.6,0,0,1,2.1,8.9c.5,3.2.7,6.8-.8,9.8s-3,4.5-5.6,4.9a6.8,6.8,0,0,1-6.2-3.2c-4-5.6-.9-13.4,1.2-19.2a99.5,99.5,0,0,1,4.8-10.5c1.8-3.4,4.1-6.6,6-9.9,1.1-1.8-1.6-4.1-3-2.4a61.5,61.5,0,0,0-6.5,10.3,120.1,120.1,0,0,0-5,11c-2.6,7-5.7,15.9-.9,22.7a11.1,11.1,0,0,0,8.4,5.1,10.7,10.7,0,0,0,8.5-4.3c4.9-6.4,2.6-15,.4-22s-5.1-13.7-12-15.1a.8.8,0,0,0-.4,1.5Z" transform="translate(-0.8)" fill="#f7f4e7"/>
        </g>
        <g>
          <path d="M298.5,171.8c-2,13.4-4.6,26.9-10.6,38.9s-16.2,22.7-29.1,26.6-28.7-.5-35.7-12" transform="translate(-0.8)" fill="#f7f4e7"/>
          <path d="M297.6,171.6a200.9,200.9,0,0,1-6.5,26.5,70.8,70.8,0,0,1-11.3,21.6c-8.8,11.1-22.5,19.1-37.1,16.1a32.5,32.5,0,0,1-10.4-4.2A21.1,21.1,0,0,1,228,228l-1.6-1.8a9.1,9.1,0,0,0-2.4-2.4c-1.4-.9-2.8.7-2.6,2s1.6,3.5,3,5a37,37,0,0,0,4.2,3.7,35.1,35.1,0,0,0,9.7,4.8,36.9,36.9,0,0,0,22.3-.3c16.1-5.4,27-20.3,32.5-35.7,3.6-10.2,5.1-20.8,6.3-31.5.1-1-1.6-1.2-1.8-.2Z" transform="translate(-0.8)" fill="#f7f4e7"/>
        </g>
        <g>
          <path d="M221.3,222.4a47.9,47.9,0,0,1,52.9-42.3c4.5.5,9.7,2.4,10.7,6.7s-4.2,9.6-8.9,12.2l-30.9,17.4c-6,3.3-12.7,6.8-19.4,5.4" transform="translate(-0.8)" fill="#f7f4e7"/>
          <path d="M222,222.5a47.6,47.6,0,0,1,12-25.6,47.1,47.1,0,0,1,25.5-14.4,43.3,43.3,0,0,1,14.8-.6c3.4.4,8.4,1.8,8.9,5.8s-4.1,7.2-7.1,9c-5.1,3-10.3,5.7-15.5,8.6l-17.8,9.9a49.2,49.2,0,0,1-8.1,3.7c-3,1-5.9.9-9,1s-2.7,2.7-.9,3.5c5.6,2.4,12.3-.4,17.4-3s11.5-6.4,17.2-9.7l17.4-9.8c4.1-2.3,8.9-5.6,10-10.4s-2.3-8.9-6.7-10.7-10.4-1.9-15.3-1.4a49.8,49.8,0,0,0-29.4,13.3,49,49,0,0,0-14.7,30.7c-.1.7,1.2.9,1.3.1Z" transform="translate(-0.8)" fill="#f7f4e7"/>
        </g>
        <g>
          <path d="M222.8,219.3a6.6,6.6,0,0,0-1.5,3.9c.2,1.4,1.6,2.7,2.9,2.2a2.3,2.3,0,0,0,1-2.7,6,6,0,0,0-1.6-2.6" transform="translate(-0.8)" fill="#f7f4e7"/>
          <path d="M222.3,218.8l-.6.7c-.1.3-.4.4-.6.6a7.1,7.1,0,0,0-.7.9l-.4,1a4.6,4.6,0,0,0,1,4.1,3.4,3.4,0,0,0,4.2.7,3.8,3.8,0,0,0,2-3.5,5.5,5.5,0,0,0-.7-2.5,3.5,3.5,0,0,0-.5-.8,3.1,3.1,0,0,0-1.6-1.4,1.9,1.9,0,0,0-1.6.4,1.6,1.6,0,0,0-.8,1.4,2.2,2.2,0,0,0,.7,1.6l.4.5-.3-.4a7.5,7.5,0,0,1,.7,1.2l-.2-.5a2.4,2.4,0,0,1,.2.8v-.5a1.5,1.5,0,0,1-.1.7v-.4a1.4,1.4,0,0,1-.2.6l.2-.5a.5.5,0,0,1-.2.4l.2-.2-.2.2.2-.2h-.2c-.1.1.5-.1.2,0h.2c-.1.1-.2.1-.4,0h.2c-.2,0-.3-.1.1.1a.1.1,0,0,1-.1-.1h-.2c-.2-.1.3.3.1.1l-.3-.2c0-.1-.3-.4-.1-.2s-.1-.1-.1-.2h-.1c.1.1.1.3.1.1a.6.6,0,0,1-.1-.4h0v-.7c0-.2-.1.3,0,0v-.2a1.5,1.5,0,0,0,.1-.7,2.2,2.2,0,0,1,.1-.8,4.1,4.1,0,0,1,.3-.8.6.6,0,0,0-.2-.8.6.6,0,0,0-.8,0Z" transform="translate(-0.8)" fill="#f7f4e7"/>
        </g>
        <g>
          <path d="M296.6,164.4a11.4,11.4,0,0,1-.3,11.3,12.5,12.5,0,0,1-.4-8.1" transform="translate(-0.8)" fill="#f7f4e7"/>
          <path d="M295.1,165.2c.1.1.1.3.2.4s-.1-.1,0,.1l.3.6.3,1.3v.3h0c0,.2.1.5.1.7s-.1.9-.1,1.4h0v.3a6.4,6.4,0,0,1-.2.7,5,5,0,0,1-.4,1.3c0,.2-.2.8-.1.2a1.5,1.5,0,0,1-.3.7,8.3,8.3,0,0,1-.7,1.3l4.5.6a14.6,14.6,0,0,1-.5-2,1.4,1.4,0,0,1-.2-.6c0,.2.1.4.1.1s-.1-.7-.2-1.1v-3a3.1,3.1,0,0,0-.3-1.3c.2.4,0,.1,0-.1a1.8,1.8,0,0,0-3-.8,5,5,0,0,0-1.5,2.5,13.2,13.2,0,0,0-.2,2.8,15.9,15.9,0,0,0,1.3,5.3,2.6,2.6,0,0,0,2.1,1.3,2.6,2.6,0,0,0,2.2-1.3,14.2,14.2,0,0,0-.4-13.4,1.7,1.7,0,0,0-2.3-.6,1.7,1.7,0,0,0-.7,2.3Z" transform="translate(-0.8)" fill="#f7f4e7"/>
        </g>
        <g>
          <path d="M200.1,244.9a5,5,0,0,0-3.9-3.9,4.7,4.7,0,0,0-4.8,2.4c-1.9,3.5,1.1,7.5,3.3,10.8a31.2,31.2,0,0,1,5,20.8c-.4,4.2-1.7,8.8.2,12.6s4.7,4.7,7.8,6.1a81.9,81.9,0,0,0,33.8,7,68.9,68.9,0,0,1-23.4-39.8c-1.5-7.7-1.7-15.9-6-22.3,1.9,2.2,1.1,6-1.3,7.6a7.8,7.8,0,0,1-8.3,0,14.8,14.8,0,0,1-5.5-6.6" transform="translate(-0.8)" fill="#d5efee"/>
          <path d="M201.8,244.4a6.5,6.5,0,0,0-7-5.1,6.7,6.7,0,0,0-5.9,6.8c.2,3.7,2.6,6.6,4.5,9.6a30.6,30.6,0,0,1,3.9,10,30.3,30.3,0,0,1,.1,10.4c-.5,3.7-1.3,7.7,0,11.3a14.2,14.2,0,0,0,7.1,7.2,56.1,56.1,0,0,0,10.5,4.2,88.1,88.1,0,0,0,26.5,3.9c1.7,0,2.8-2.3,1.5-3.4a67.4,67.4,0,0,1-16.5-21,75.4,75.4,0,0,1-4.8-12.2,127.2,127.2,0,0,1-2.6-13.7c-.8-5.3-2.1-10.5-5-15l-3.6,2.8a3.1,3.1,0,0,1-.1,3.2,4.2,4.2,0,0,1-3.7,1.8c-3.9-.1-6.3-3.6-7.8-6.7a2.2,2.2,0,0,0-3-.8,2.1,2.1,0,0,0-.8,3c2.5,5.2,7.3,9.8,13.5,8.8s9-7.5,5.5-12.1a2.5,2.5,0,0,0-3.1-.8,2.3,2.3,0,0,0-.8,3.1c2.5,4,3.4,8.5,4.2,13.1s1.3,9.2,2.6,13.7a67.3,67.3,0,0,0,12.4,24.6,61.9,61.9,0,0,0,10.7,11l1.4-3.4a82.5,82.5,0,0,1-20.3-2.6,90,90,0,0,1-10-3.3c-2.5-1-5.4-2.1-7.5-3.9s-2.8-4.8-2.6-7.9,1-6.2,1-9.3a34.1,34.1,0,0,0-5.5-18.1c-1.5-2.3-4.6-5.6-3.9-8.6a3,3,0,0,1,3.2-2.2,3.2,3.2,0,0,1,2.5,2.5c.5,2.2,3.8,1.3,3.4-.9Z" transform="translate(-0.8)" fill="#d5efee"/>
        </g>
        <g>
          <path d="M250.8,294.9a133.6,133.6,0,0,0,14.8-62" transform="translate(-0.8)" fill="#edf7f6"/>
          <path d="M251.6,295.3a125.4,125.4,0,0,0,9.9-23.6,140.3,140.3,0,0,0,5.1-25c.3-2.4.5-4.8.7-7.2s.1-2.4.1-3.6a8.2,8.2,0,0,0-.5-3.8,1.5,1.5,0,0,0-2.6,0c-.9,1.8-.5,4.3-.5,6.2l-.3,6.2a107.9,107.9,0,0,1-1.4,12.6,133,133,0,0,1-6.5,24,129,129,0,0,1-5.6,13.3c-.5,1.1,1,2,1.6.9Z" transform="translate(-0.8)" fill="#edf7f6"/>
        </g>
        <g>
          <path d="M215.7,229.5c-4.1,25.6,8.1,53,29.7,67.2,1.2.8,2.5,1.6,3.9,1.3s2.4-2.1,1.5-3.1" transform="translate(-0.8)" fill="#edf7f6"/>
          <path d="M214.8,229.2a66.6,66.6,0,0,0,3.2,35.6,70.7,70.7,0,0,0,20.5,29.5l3.9,3.1c1.6,1.1,3.2,2.4,5.1,2.8a4.7,4.7,0,0,0,5.3-2,3.7,3.7,0,0,0-1.2-4.8,1.7,1.7,0,0,0-2.1.3,1.8,1.8,0,0,0-.3,2.1c-.4-1.1.4-.7-.1-.4l-.4.4c-.2.1-.8-.3-1-.4a22.1,22.1,0,0,1-3.6-2.3,52.9,52.9,0,0,1-5.9-4.7A72.1,72.1,0,0,1,228,276.5a74.9,74.9,0,0,1-11.2-29.2,66.3,66.3,0,0,1-.2-17.8c.2-1.1-1.6-1.3-1.8-.3Z" transform="translate(-0.8)" fill="#edf7f6"/>
        </g>
        <g>
          <path d="M232.3,196.7" transform="translate(-0.8)" fill="#edf7f6"/>
          <path d="M232.3,199.2c3.1,0,3.2-5,0-5s-3.2,5,0,5Z" transform="translate(-0.8)" fill="#edf7f6"/>
        </g>
        <g>
          <path d="M218.6,223.9c1.8,8.1,8.9,14.1,16.6,16.9s16.2,2.8,24.4,2.7c1.7,0,3.5,0,4.9-1.1s1.8-3.3.4-4.3A96.8,96.8,0,0,1,247.1,272a1.5,1.5,0,0,0,2.5.6" transform="translate(-0.8)" fill="#edf7f6"/>
          <path d="M217.6,224.2c1.5,7.9,7.8,14,14.9,17.2,8.7,3.9,18.7,4.2,28.1,3.9,2.3-.1,4.8-.6,6.1-2.7s1.1-4.4-.6-5.7a1.8,1.8,0,0,0-3,.8,91.6,91.6,0,0,1-9.8,22.2,95.9,95.9,0,0,1-6.9,9.8c-.7.9-1.5,1.7-1.2,2.9a3.4,3.4,0,0,0,1.7,2A3,3,0,0,0,251,273a1.5,1.5,0,0,0-1.8-1.8c-.3.1-.3.1-.1.1s.1-.1-.2-.1-.2-1.1.2.2l-.5,2a99.6,99.6,0,0,0,18-34.8l-3,.8c1,.8-.4,1.8-1.2,2.1s-3.6.2-5.3.2a102,102,0,0,1-12.4-.5c-7-.9-14-3.2-19.3-8.1a20.2,20.2,0,0,1-5.8-9.4c-.3-1.4-2.3-.8-2,.5Z" transform="translate(-0.8)" fill="#edf7f6"/>
        </g>
        <g>
          <path d="M220.1,231.7c3.3,11.8,8.8,22.8,14.2,33.8,3.2,6.4,6.4,12.8,9.5,19.2.7,1.4,1.5,2.8,2.8,3.3,3,1,5.2-2.7,6.1-5.7l4.8-16c1.4-4.7,2.5-10.6-1.3-13.8s-7.3-1.8-11-2.5c-6-1.3-10.4-6.2-14.7-10.6s-9.4-8.9-15.6-8.6" transform="translate(-0.8)" fill="#edf7f6"/>
          <path d="M219.3,231.9c2.8,11.2,7.5,21.7,12.5,32.1l8.1,16.7c1.8,3.7,4.3,11.6,9.9,8.8a8.7,8.7,0,0,0,3.9-4.7,76.9,76.9,0,0,0,2.7-8.1c1.5-5.1,3.6-10.3,4.2-15.6s-.6-9.2-4.9-11.3-9.2-.8-13.5-3-8.3-7.1-12.2-10.9-9.2-7.4-15.1-7c-2.4.2-2.5,3.8,0,3.8,9.4.1,14.7,9.7,21.3,14.9a19.6,19.6,0,0,0,5.9,3.5,19,19,0,0,0,6.3,1.2c1.9.2,4.1.2,5.8,1.2a5.7,5.7,0,0,1,2.6,4.1c.6,4.1-1.3,8.5-2.4,12.4l-2.4,8c-.6,2.2-1.1,4.6-2.3,6.5s-2,2.6-3.2,1.1a8.9,8.9,0,0,1-1.5-2.7l-2.1-4c-2.5-5-5-10-7.6-15-5.4-10.5-10.8-21.2-14.4-32.5a.8.8,0,0,0-1.6.5Z" transform="translate(-0.8)" fill="#edf7f6"/>
        </g>
        <g>
          <path d="M259.4,238.7l-5.9,2.8a5.3,5.3,0,0,0,9.3-5" transform="translate(-0.8)" fill="#edf7f6"/>
          <path d="M259.1,238.1l-5.9,2.5a1,1,0,0,0-.6,1.4,6.4,6.4,0,0,0,11.6-2.1c.4-1.3.5-4-1.1-4.5a1.1,1.1,0,0,0-1.2.5,2,2,0,0,0-.1,1.5h0V239h0l-.2.5v.4h0v.2a3.5,3.5,0,0,1-.5.8h0a.2.2,0,0,1-.2.2c0,.1-.1.2-.2.3l-.6.4-.4.2h-.3l-.8.2H257a4.3,4.3,0,0,1-2.9-1.6v1.5l5.8-3a.8.8,0,0,0,.2-1,.6.6,0,0,0-.9-.2Z" transform="translate(-0.8)" fill="#edf7f6"/>
        </g>
        <g>
          <path d="M254,286.5c2,2,0,5.8-2.7,6s-5.1-2.6-5.2-5.4,1.6-5.3,3.8-7.1" transform="translate(-0.8)" fill="#edf7f6"/>
          <path d="M253.3,287.3a2.3,2.3,0,0,1,0,2.5,2.8,2.8,0,0,1-2.4,1.4,4.2,4.2,0,0,1-2.8-2.1,4.8,4.8,0,0,1-.3-3.9,10.7,10.7,0,0,1,2.8-4.4c.8-.9-.2-2.3-1.2-1.7a10,10,0,0,0-4.3,5.2,7.7,7.7,0,0,0,.6,6.3,6.2,6.2,0,0,0,5,3.2,4.9,4.9,0,0,0,4.5-2.6,4.5,4.5,0,0,0-.4-5.5c-1-1-2.4.5-1.5,1.6Z" transform="translate(-0.8)" fill="#edf7f6"/>
        </g>
        <g>
          <path d="M339.6,154.7a39.3,39.3,0,0,1-3.1,38.9,23.9,23.9,0,0,0,13.1-18.1,23.6,23.6,0,0,0-8.1-20.9" transform="translate(-0.8)" fill="#fff"/>
          <path d="M338.8,154.9a40.1,40.1,0,0,1-4,37.8c-1.2,1.6,1.1,3.3,2.6,2.6A26.2,26.2,0,0,0,350.3,181c2.4-6.4,1.7-13.1-.9-19.3a17.3,17.3,0,0,0-2.9-5.1c-1.2-1.6-2.5-3.3-4.5-3.8s-2.8.9-2.2,2.3,2.3,2.9,3.4,4.5a23.6,23.6,0,0,1,2.9,4.8,21.3,21.3,0,0,1,1.5,10.9A22.3,22.3,0,0,1,335.5,192l2.6,2.6a40.9,40.9,0,0,0,6.8-20,37.7,37.7,0,0,0-4.6-20.3c-.4-.8-1.8-.3-1.5.6Z" transform="translate(-0.8)" fill="#fff"/>
        </g>
        <g>
          <path d="M333.6,208.8l-5,7.3a6.6,6.6,0,0,0,5.3-1.4c1.3-1.3,1.7-3.7.4-5.1s-4.1-.9-4.4,1" transform="translate(-0.8)" fill="#fff"/>
          <path d="M332.7,208.3l-2.4,3.4-1.4,1.7a18.3,18.3,0,0,1-1.3,1.6,1.5,1.5,0,0,0,.7,2.5,7.5,7.5,0,0,0,5.1-.5,6,6,0,0,0,3.2-3.6,5.4,5.4,0,0,0-.9-4.9,4.8,4.8,0,0,0-3.8-1.4,5.1,5.1,0,0,0-2.5,1.1,3,3,0,0,0-1.1,2.4,1.6,1.6,0,0,0,1.4,1.5,1.6,1.6,0,0,0,1.7-1.1c-.2.5-.1.1,0,0h-.1l.5-.4c.1-.2-.4.2-.2.1a.1.1,0,0,0,.1-.1h.9c-.4,0,0,.1.1.1h.2l.2.3c.3.2-.1-.3,0,0l.2.3c.2.2-.1-.4,0,0s.1.3.1.4,0-.4,0,0v.4h0a.8.8,0,0,1-.1.4.4.4,0,0,1-.1.3c-.1.3.1-.1.1-.1a.3.3,0,0,0-.1.2l-.2.3h-.1c-.1.3,0,.1.1,0l-.6.5c-.1.2.3-.1.1,0s-.1,0-.1.1l-.5.2h-.2c-.3.2,0,.1.1,0l-.5.2h-2.7l1.3,2.2,1.1-1.9,1.1-1.9,2.3-3.7a1,1,0,0,0-.4-1.3,1,1,0,0,0-1.3.3Z" transform="translate(-0.8)" fill="#fff"/>
        </g>
        <g>
          <path d="M147.4,158a44.6,44.6,0,0,0,8.5,31.6c2-1.6,1.4-4.6.6-7-2.8-8.5-5.9-16.9-9.2-25.1" transform="translate(-0.8)" fill="#fff"/>
          <path d="M147.2,157.9a44.2,44.2,0,0,0,8,32.1,1,1,0,0,0,1.3.2c1.8-1.6,1.8-3.9,1.4-6s-1.8-5.9-2.8-8.8l-3.4-9.1c-.7-1.6-1.3-3.2-1.9-4.7a17.8,17.8,0,0,0-2.1-4.4c-.3-.3-1-.3-.9.3.3,2.8,1.8,5.5,2.8,8.1l3,8.5c.9,2.8,1.8,5.5,2.8,8.3s1.9,4.9,0,6.6l1.2.2a45.8,45.8,0,0,1-8.9-31.2c.1-.3-.5-.4-.5-.1Z" transform="translate(-0.8)" fill="#fff"/>
        </g>
        <g>
          <path d="M163.9,200.8a6,6,0,0,0-1.1,4.2c.4,1.4,1.8,2.7,3.3,2.3s2.2-2.4,1.7-3.9a8.7,8.7,0,0,0-2.9-3.7" transform="translate(-0.8)" fill="#fff"/>
          <path d="M163.2,200.4A6.4,6.4,0,0,0,162,205a4.1,4.1,0,0,0,2.6,3.2,3.3,3.3,0,0,0,3.6-1.5,4.5,4.5,0,0,0,.3-3.6,9.8,9.8,0,0,0-3.1-3.9c-.7-.5-1.6.3-1,.9a11.3,11.3,0,0,1,2.3,2.6,3,3,0,0,1,.3,2.6,1.7,1.7,0,0,1-1.6,1.2H165a.9.9,0,0,1-.5-.3,2.1,2.1,0,0,1-.8-1.1,4.5,4.5,0,0,1,.9-3.7c.5-.9-.8-1.6-1.4-.8Z" transform="translate(-0.8)" fill="#fff"/>
        </g>
        <g>
          <path d="M314.6,67.9A166.2,166.2,0,0,1,295,133.7a51,51,0,0,1,51.1,1.5c2.7,1.7,5.3,3.7,8.3,4.9s6.5,1.3,9.2-.5,3.6-4.7,4.6-7.5c4.1-12.8,6.3-26.6,3.7-39.8s-10.7-25.7-22.8-31.5-28.4-3.2-36.6,7.4" transform="translate(-0.8)" fill="#f0f7f2"/>
          <path d="M313.6,67.6c-2.4,17.6-6.7,35-13.7,51.3-2.1,4.7-4.4,9.2-6.7,13.7a2.1,2.1,0,0,0,2.8,2.9,48.1,48.1,0,0,1,39.6-3.1,44.9,44.9,0,0,1,9.1,4.4c3.1,2,6.1,4.3,9.6,5.5s7.2,1.2,10.2-.7,4.5-5.2,5.6-8.4c4.8-14.7,7.3-31.3,2.8-46.4-3.8-12.5-12.4-24-24.8-29a34.2,34.2,0,0,0-18.2-1.9c-5.8.8-12.2,3.3-16.3,7.7a14.2,14.2,0,0,0-2.6,3.8,1.8,1.8,0,0,0,2.8,2.1c4.1-3.7,8.6-6.9,14-8.3a30.3,30.3,0,0,1,16.1.2c11.5,3.4,19.8,13.5,23.7,24.3,5.1,14,3.5,29.2-.7,43.1-.8,2.8-1.5,6.2-3.7,8.4s-5.6,1.9-8.3.8-6.1-3.7-9.1-5.4a47,47,0,0,0-8.8-4.1,54.4,54.4,0,0,0-43.1,3.4l2.9,2.8a153.3,153.3,0,0,0,17.5-51.5,131.4,131.4,0,0,0,1.2-15.3c0-1.1-1.7-1.4-1.9-.3Z" transform="translate(-0.8)" fill="#f0f7f2"/>
        </g>
        <g>
          <path d="M354.4,144.2A181.7,181.7,0,0,1,301,156.8c-1.5.1-3.1.2-4.2-.7s-1.6-3-1.5-4.7a43.3,43.3,0,0,1,5.2-20.5" transform="translate(-0.8)" fill="#efede6"/>
          <path d="M354.3,143.5a202.1,202.1,0,0,1-32.4,9q-8.2,1.5-16.5,2.4l-4,.3a5.7,5.7,0,0,1-3.4-.3c-1.7-1-1.1-4.7-.9-6.4a43,43,0,0,1,1.6-8.7,35.2,35.2,0,0,1,1.5-4.2,22.6,22.6,0,0,0,1.7-4.3,1.4,1.4,0,0,0-2.4-1.4c-1.9,2.1-2.9,5.3-3.8,7.9a44.9,44.9,0,0,0-1.8,8.7c-.3,2.6-.7,5.6,0,8.1a5.5,5.5,0,0,0,5.6,3.9,89.4,89.4,0,0,0,8.9-.9c3.1-.4,6.1-.9,9.2-1.5,5.9-1.1,11.9-2.5,17.7-4.1a162.2,162.2,0,0,0,19.5-7.2c.7-.3.2-1.6-.5-1.3Z" transform="translate(-0.8)" fill="#efede6"/>
        </g>
        <g>
          <path d="M351.3,143.4a131.7,131.7,0,0,1-43.3-3.8c-2.4-.6-4.9-1.3-6.8-2.9s-3-4.4-2-6.7,4.3-3.5,7.1-3.9a60.8,60.8,0,0,1,50.4,17.2" transform="translate(-0.8)" fill="#efede6"/>
          <path d="M351.3,142.6a164.1,164.1,0,0,1-26.2-1.1c-4.3-.6-8.7-1.4-13-2.3s-8.3-1.4-10.6-4.4c-.9-1.2-1.5-2.9-.8-4.3a5.6,5.6,0,0,1,3.5-2.3,36.3,36.3,0,0,1,10.4-.8,59.6,59.6,0,0,1,40.7,17.2c1.8,1.8,4.6-.9,2.8-2.7a62.3,62.3,0,0,0-43.3-18.1c-5.7,0-18.9.1-17.5,9,.6,4,4.2,6.4,7.9,7.6a95.7,95.7,0,0,0,13.9,3c10.7,1.6,21.7,2.2,32.4.7a.8.8,0,0,0-.2-1.5Z" transform="translate(-0.8)" fill="#efede6"/>
        </g>
        <g>
          <path d="M298.9,155.5l-5.1,4.1,4.7,2.1-2.7-5" transform="translate(-0.8)" fill="#efede6"/>
          <path d="M298.7,155.1,296,157l-1.3.8-.6.3-.5.3-.4.3a1.1,1.1,0,0,0-.5.9,1.2,1.2,0,0,0,.5.9l4.7,2.2a1.2,1.2,0,0,0,1.4-.2,1.1,1.1,0,0,0,.2-1.4l-1.4-2.6a5.4,5.4,0,0,0-.7-1.3l-.4-.6a1.9,1.9,0,0,0-.8-.7.9.9,0,0,0-1.3.8,1.4,1.4,0,0,0,0,.9l.4.8.7,1.3,1.5,2.6,1.3-1.7-4.8-2,.5,1.7a2.3,2.3,0,0,0,.7-.7l.5-.5,1.1-1.1,2.5-2.2c.3-.3-.2-1-.6-.7Z" transform="translate(-0.8)" fill="#efede6"/>
        </g>
        <g>
          <path d="M298.2,158.2a112.7,112.7,0,0,0-3.9,23.1" transform="translate(-0.8)" fill="#efede6"/>
          <path d="M297.9,158.1a78.2,78.2,0,0,0-3.1,11.5,42.3,42.3,0,0,0-1.2,11.7c.1.8,1.2,1.1,1.4.2.8-3.8.9-7.7,1.5-11.6s1.3-7.8,2.1-11.6c.1-.5-.6-.7-.7-.2Z" transform="translate(-0.8)" fill="#efede6"/>
        </g>
        <g>
          <path d="M241,242.1l1.6.2a1.5,1.5,0,0,0,1.9,2.2L243,240" transform="translate(-0.8)" fill="#f7f4e7"/>
          <path d="M240.8,242.8l1.5.3-.4-1.5a2.6,2.6,0,0,0-.2,3.5,2.8,2.8,0,0,0,1.5.8h.7c-.3-.1-.3-.1-.1-.1h.2a2.4,2.4,0,0,0,1.2-.3,1.3,1.3,0,0,0,.6-1.5l-.7-2.4a5.6,5.6,0,0,1-.4-1.2,4.1,4.1,0,0,0-.7-1.1c-.2-.2-.5-.2-.7-.3a.8.8,0,0,0-1,.4l-.4.6a2,2,0,0,0,.1,1.1c.1.4.3.8.4,1.2l.8,2.4.6-1.5a1.2,1.2,0,0,0-.5.5h.1c.2-.1.2-.1.1-.1h-.2c-.1-.1-.1,0,.1.1h-.2c-.1-.1,0-.1,0,.1v-.3a.1.1,0,0,1-.1-.1h.1v-.2c-.1.1-.1.2-.1,0h.1c0,.1-.1.2,0,.1s.2-.3,0-.1a.8.8,0,0,0,.2-1c-.1-.3-.5-.5-.8-.6H241a.8.8,0,0,0-.8.7c0,.3.2.8.6.8Z" transform="translate(-0.8)" fill="#f7f4e7"/>
        </g>
        <g>
          <path d="M245.1,241.6" transform="translate(-0.8)" fill="#f7f4e7"/>
          <path d="M245.1,244.1c3.2,0,3.2-5,0-5s-3.2,5,0,5Z" transform="translate(-0.8)" fill="#f7f4e7"/>
        </g>
        <path d="M242.1,242.1a44.5,44.5,0,0,0-4.2,8.1c-.9,2.3-2.3,5.7-.8,8s3.8,1.8,5.5.5,2.1-4.7,1.8-7.1a.9.9,0,0,0-1.3-.8,9.7,9.7,0,0,0-3.9,5.4,23.3,23.3,0,0,0-1.4,7.8c-.1,2.3,1,5,3.5,5.4a2.8,2.8,0,0,0,3.2-3.2c-.1-.2-.2-.3-.4-.3-3.5.4-6.8,3.5-6.7,7.2a6.9,6.9,0,0,0,2.2,4.8,6.4,6.4,0,0,0,2.2,1.4,7.6,7.6,0,0,0,3,.2l-.2-.3c-1.6,3-.5,8.3,3.3,9,.3,0,.5-.4.2-.5-2.8-1.8-4.9-5-3.1-8.3.1-.2,0-.3-.2-.3a7.7,7.7,0,0,1-4.3-1.9,6,6,0,0,1,3.6-10.6l-.3-.3a1.9,1.9,0,0,1-2.7,1.8,3.6,3.6,0,0,1-1.7-2.4,14.2,14.2,0,0,1,.5-5.4c.5-3,1.4-6.3,4.1-8l-1.3-.7c.1,1.7.3,4.4-1.4,5.5a1.9,1.9,0,0,1-2,.3c-.9-.6-.7-1.9-.5-2.7a36.4,36.4,0,0,1,4.4-11.9c.4-.8-.7-1.4-1.1-.7Z" transform="translate(-0.8)" fill="#f7f4e7"/>
        <g>
          <path d="M312.3,66.3a74.6,74.6,0,0,0-24.8,64.6" transform="translate(-0.8)" fill="#f0f7f2"/>
          <path d="M311.8,65.9A70.3,70.3,0,0,0,301.5,76a71.5,71.5,0,0,0-7.9,11.8,74.6,74.6,0,0,0-8.2,27.7,72,72,0,0,0-.4,8.1c.1,2.6-.1,5.8,1,8.2a1.8,1.8,0,0,0,3.2-.5c.5-2.2-.1-4.7-.2-7a53,53,0,0,1,.1-6.9,68.8,68.8,0,0,1,2.1-13.6,78.5,78.5,0,0,1,11.3-25,65.4,65.4,0,0,1,10.2-12c.6-.6-.3-1.4-.9-.9Z" transform="translate(-0.8)" fill="#f0f7f2"/>
        </g>
        <g>
          <path d="M292.1,130.2a77.9,77.9,0,0,0,22.6-54.3c0-1.5-.1-3.2-1.2-4.2s-3.3-1.1-4.8-.2a11.4,11.4,0,0,0-3.3,3.9,110.8,110.8,0,0,0-15.9,53.4" transform="translate(-0.8)" fill="#f0f7f2"/>
          <path d="M292.7,130.8a79,79,0,0,0,22.9-45.9,48.7,48.7,0,0,0,.5-6.5c.1-2.1.3-4.3-.5-6.2-1.8-4.4-7.3-3.3-9.8-.3a31,31,0,0,0-3.7,5.7q-1.7,3-3.3,6.3a128.3,128.3,0,0,0-5.5,13.3,117.5,117.5,0,0,0-4,15.5c-.5,2.6-.9,5.3-1.2,7.9s-.3,2.7-.4,4,.2,2.8.3,4.2,2.6,2.2,3,.4.7-4.3.9-6.6.4-4.2.7-6.3c.7-4.3,1.6-8.6,2.7-12.8a110.7,110.7,0,0,1,9.7-24,40.4,40.4,0,0,1,3.2-5.2c.8-1.1,2.8-2.7,4.2-1.5s.8,3.9.8,5.4-.2,3.9-.4,5.8a76,76,0,0,1-6.3,23.3,72.8,72.8,0,0,1-15.1,22.2.9.9,0,0,0,1.3,1.3Z" transform="translate(-0.8)" fill="#f0f7f2"/>
        </g>
        <g>
          <path d="M300.3,131.7a12.7,12.7,0,0,0-5.4,22.9,43.6,43.6,0,0,0,2.8-23.1" transform="translate(-0.8)" fill="#efede6"/>
          <path d="M300.3,131.2a13.8,13.8,0,0,0-11.5,9.6,14.3,14.3,0,0,0,5.3,15.1,1.6,1.6,0,0,0,2.1-.6,46.2,46.2,0,0,0,3.3-12.1,44.4,44.4,0,0,0,.4-6.3,14,14,0,0,0-1-6.1c-.5-1.1-2.4-.9-2.5.3a37.4,37.4,0,0,0,0,5.8,38.8,38.8,0,0,1-.2,5.9,45.3,45.3,0,0,1-2.8,11.4l2.2-.9a11.9,11.9,0,0,1-4.6-12,12.1,12.1,0,0,1,9.5-9.1c.5-.1.4-1.1-.2-1Z" transform="translate(-0.8)" fill="#efede6"/>
        </g>
        <g>
          <path d="M198.1,74.6A113.1,113.1,0,0,1,213,106.7c.5-6.1-1.5-12.2-4.6-17.5s-7.3-9.9-11.4-14.4" transform="translate(-0.8)" fill="#fff"/>
          <path d="M197.8,74.8a126.7,126.7,0,0,1,8.3,15.4c1.2,2.7,2.3,5.4,3.3,8.2a41.8,41.8,0,0,1,2.6,8.5c.2,1.3,2,.9,2.1-.2.5-6.3-1.4-12.4-4.4-17.8a49.3,49.3,0,0,0-5.3-7.6,57.6,57.6,0,0,0-6.4-7.5c-1.1-1-3.1.4-2.1,1.7s3.9,4.4,5.8,6.6a65.5,65.5,0,0,1,5.5,7.5c3.1,5.2,5.2,11,4.8,17.1l2-.6c-1.3-2.7-2.1-5.8-3.2-8.6s-2.2-5.2-3.4-7.8a110.5,110.5,0,0,0-9-15.2c-.3-.4-.9-.1-.6.3Z" transform="translate(-0.8)" fill="#fff"/>
        </g>
        <g>
          <path d="M215.4,116.3a6.6,6.6,0,0,0,.3,6.4,3.7,3.7,0,0,0-1.5-5.5" transform="translate(-0.8)" fill="#fff"/>
          <path d="M214.7,115.8a7.8,7.8,0,0,0,.1,7.4.9.9,0,0,0,1.6.2l.4-.5h0l.3-.4a4.2,4.2,0,0,0,.4-1,6,6,0,0,0-.1-2.3,4.9,4.9,0,0,0-1.1-2c-.5-.7-1.7-1.6-2.6-1a1.1,1.1,0,0,0-.5,1.3,1.5,1.5,0,0,0,.9,1l.2.2h-.1l.3.3.2.2s-.2-.3-.1-.1l.2.3.2.4c-.1-.2-.1-.2,0-.2v.2h.1c0,.2,0,.3.1.4v.2c-.1,0,0-.3,0,0v.4h0c0,.1-.1.3,0,.1s0,0,0,.1-.1.1-.1.2a.4.4,0,0,1-.1.3v.2c0,.2.1,0,0,0a.8.8,0,0,0-.2.4h1.8a5.9,5.9,0,0,1-.4-5.5,1,1,0,0,0-.3-1.2.9.9,0,0,0-1.2.3Z" transform="translate(-0.8)" fill="#fff"/>
        </g>
        <g>
          <path d="M339.6,38.3c2,3.5,7.9,3.8,10.3.5s.1-8.8-3.9-9.6-8,3.5-7.1,7.4" transform="translate(-0.8)" fill="#fef280"/>
          <path d="M338.4,39a7.5,7.5,0,0,0,7,3.5,7,7,0,0,0,6.5-4.6,8.1,8.1,0,0,0-1.7-7.9,7,7,0,0,0-8.3-1.7,9.1,9.1,0,0,0-3.8,3.5,7.3,7.3,0,0,0-.9,2.6,4.9,4.9,0,0,0,.6,2.9,1.3,1.3,0,0,0,1.4.5,1.1,1.1,0,0,0,.9-1.2c0,.3.1-.2.1-.2a.8.8,0,0,1,.1-.4,2,2,0,0,1,.1-.7c-.1.4,0-.1,0-.1s.1-.6.2-.9.1-.3.1-.4-.1.2.1-.2l.4-.7.3-.4c-.2.2.1-.1.1-.2l.6-.6s.4-.3.2-.2h.1l.2-.2.8-.4c.4-.2-.3,0,.2-.1h.8c.5-.1-.2,0,.2-.1h1.8c-.3-.1.1,0,.1.1l.6.3s.3.3.1,0a.8.8,0,0,0,.4.4l.5.5c.3.4-.1-.2.1.2l.2.3.3.5c.1.2.1.3.2.4s.1.2.1.3.1.5.2.7V35c0-.4.1.1.1.1v1h0a.4.4,0,0,0-.1.3,1.9,1.9,0,0,1-.2.7c0,.1-.2.4,0,.2l-.2.3a1,1,0,0,1-.4.5c.2-.2,0,.1-.1.2l-.3.3H348l-.3.2-.6.3s-.4.2-.1.1h-.4l-.8.2c-.1,0-.5.1-.2.1h-1.3s-.4-.1-.1,0h-.5l-.9-.3c-.3-.1.3.2-.1,0l-.3-.2-.4-.2h-.2l-.6-.6L341,38c-.1-.1-.1-.2-.2-.4a1.4,1.4,0,0,0-2.4,1.4Z" transform="translate(-0.8)" fill="#fef280"/>
        </g>
        <g>
          <path d="M93.5,171.8c-3.8-1.4-4.9-7.3-1.9-10s8.8-.8,9.7,3.2-3.5,8-7.4,6.9" transform="translate(-0.8)" fill="#fef280"/>
          <path d="M94.1,170.7l-.7-.3-.2-.2c-.2-.1.1.1,0,0L93,170l-.5-.5c-.1-.1-.2-.3-.1-.1l-.3-.3-.3-.7c0-.1-.1-.1-.1-.2s.1.3.1.1l-.2-.4a6.4,6.4,0,0,1-.2-.7v-.4c-.1-.2,0,.2-.1-.1v-1.2c0-.1.1-.4,0-.1s.1-.5.2-.7v-.5c0-.2-.1.2,0,0l.3-.6h.1l.3-.4.2-.2h.1c.2-.2-.2.1,0,0l.6-.4h.3c-.1,0-.3.1-.1.1h.3l.8-.2h1.7l.7.2h.1l.4.2.7.4c.1.1.2.2,0,.1l.3.2.5.5c.2.2-.1-.2.1.1l.2.3.2.4h.1c.1.2-.1-.2-.1,0l.3.7h0c-.1-.2,0,.1,0,.2v.4c0,.1-.1.6,0,.3s-.1.2-.1.3-.1.2-.1.4v.2c0,.1-.1.3,0,.1s0,0,0,.1l-.2.2-.2.5h-.2c0,.1-.2.3,0,.1h-.1l-.2.2a4.6,4.6,0,0,1-.7.7c.2-.2,0,0-.2.1l-.4.3-.9.5c.3-.2-.1,0-.2,0H94.3a1.4,1.4,0,0,0-1.7.8,1.3,1.3,0,0,0,.6,1.8,6.4,6.4,0,0,0,4.9.2,8.4,8.4,0,0,0,3.8-3.4,6.8,6.8,0,0,0-1-8.6,8.3,8.3,0,0,0-7.8-2,6.9,6.9,0,0,0-4.7,6.4,7.5,7.5,0,0,0,4.8,7.3,1.3,1.3,0,0,0,1.4-.8,1.1,1.1,0,0,0-.5-1.5Z" transform="translate(-0.8)" fill="#fef280"/>
        </g>
        <g>
          <path d="M318.9,329.4a2.7,2.7,0,0,0,3.6,2.1,2.6,2.6,0,0,0,.6-4.1c.1-.6-.9-1.2-1.4-.7s-.1,1.4.6,1.4" transform="translate(-0.8)" fill="#fef280"/>
          <path d="M317.4,329.4a3.9,3.9,0,0,0,1.3,2.7,4.4,4.4,0,0,0,2.9,1.1,3.2,3.2,0,0,0,2.6-1.2,4.5,4.5,0,0,0,1-2.7c0-.3-.1-.6-.1-.9s-.1-.4-.1.1v-.6a2.9,2.9,0,0,0-.9-1.6l.4,1.5a2.2,2.2,0,0,0-.2-1.6,2.6,2.6,0,0,0-.9-.9,2.2,2.2,0,0,0-3.1,3,2.4,2.4,0,0,0,.9.8,1.7,1.7,0,0,0,1.4.2,1,1,0,0,0,.7-.4,1.1,1.1,0,0,0,.3-.8,1.4,1.4,0,0,0-1-1.3h.2c-.2-.1.2.2.1.1s0-.1.1.2V327l.2.4a.4.4,0,0,1-.1-.3v.4a.4.4,0,0,1,.1-.3v.4c0-.1.1-.2.1-.3l-.2.4c.1-.1.1-.1.1-.2l-.2.3a.1.1,0,0,0,.1-.1l-.3.3a.1.1,0,0,1,.1-.1l-.4.2h-.1l-.4-.2.2.2-.3-.3.2.2-.3-.3c.1,0,.1.1.1.2v-.7c0,.5,0,.8.3,1.1l.3.4c.1,0,.1.1.2.2h.1s-.2-.3-.1-.1a.3.3,0,0,1,.1.2c.1.1-.1-.3,0-.1s-.1-.4-.1-.2a.9.9,0,0,1,0,.7v-.4a1.4,1.4,0,0,1-.2.6c0,.2.2-.3.1-.1h-.1c0,.1-.1.2-.1.3a.1.1,0,0,0-.1.1c0-.1.3-.3.1-.2l-.2.3c-.2.1.3-.2.1-.2a.1.1,0,0,1-.1.1l-.3.2.3-.2-.5.2h.4a.6.6,0,0,1-.6,0h.4l-.7-.2h.3l-.6-.3.3.2-.5-.5.3.3a1,1,0,0,1-.4-.5l.2.4c-.1-.2-.1-.4-.2-.6v.2a1.7,1.7,0,0,0-1.6-1.6,1.6,1.6,0,0,0-1.5,1.6Z" transform="translate(-0.8)" fill="#fef280"/>
        </g>
        <g>
          <path d="M370,38.1" transform="translate(-0.8)" fill="#fef280"/>
          <path d="M370,40.5c3.1,0,3.1-4.9,0-4.9s-3.2,4.9,0,4.9Z" transform="translate(-0.8)" fill="#fef280"/>
        </g>
        <g>
          <path d="M85.4,186.5v2.7" transform="translate(-0.8)" fill="#fef280"/>
          <path d="M84.2,186.5v2.7a1.3,1.3,0,0,0,.3.8,1.1,1.1,0,0,0,.8.3,1,1,0,0,0,1.1-1.1l.2-2.7a1.3,1.3,0,0,0-.4-.9,1.5,1.5,0,0,0-.9-.4,1.2,1.2,0,0,0-1.2,1.3Z" transform="translate(-0.8)" fill="#fef280"/>
        </g>
        <g>
          <path d="M88.1,202.8" transform="translate(-0.8)" fill="#fef280"/>
          <path d="M88.1,205.3c3.2,0,3.2-5,0-5s-3.1,5,0,5Z" transform="translate(-0.8)" fill="#fef280"/>
        </g>
        <g>
          <path d="M304.3,406.6a6.7,6.7,0,0,0,7.9-2.3c1.5-2.6.3-6.5-2.5-7.4s-6.2,2.5-5,5.2,6.3,2.1,6.4-.9a4.1,4.1,0,0,0-5.5,0" transform="translate(-0.8)" fill="#fef280"/>
          <path d="M303.9,408c3.4,1.3,8.1.1,9.7-3.3s.3-7.8-3.3-9.1-8,2.5-7.3,6.3,5.1,4.4,7.7,2.7a3.9,3.9,0,0,0,1.8-2.2,2.8,2.8,0,0,0,.1-1.8,3.4,3.4,0,0,0-1.5-1.4,5.9,5.9,0,0,0-3.7-.6l-1.6.5a3.8,3.8,0,0,0-1.4,1.4,1.5,1.5,0,0,0,.2,1.7,1.5,1.5,0,0,0,1.7.2h.4l.6-.2h0l.6-.2c.4-.1-.3,0,.1,0h.7l.6.2h.3l.3.2h.1l-.5-1.2c0,.3.1-.3,0,0s-.1.2-.1.3.1-.2.1-.2v.2c0,.1-.1.1-.1.2h0l-.2.2h-.5s.4-.1.2-.1h-.6s-.4.1-.1.1-.1,0-.2,0h-.6l-.6-.2h0l-.3-.2c-.2-.1.2.2,0,0a.2.2,0,0,0-.2-.2h0v-.4h0v-.6c0-.1-.1.3,0,.1s0-.3.1-.4v-.2s-.1.2,0,.1a4.3,4.3,0,0,1,.4-.7h.1l.3-.3.3-.3h.2l.3-.2h.2s-.2.1-.1.1h.6c.2-.1-.2,0,0,0h.9c.1,0,.4.2.2,0l.6.4c.1.1-.1,0-.1-.1l.2.2.3.3c.1.1.2.3.1.1l.2.3.2.3c0,.1.1.4,0,.1l.3.8a.8.8,0,0,0,.1.4h0c-.1-.2,0,.1,0,.1v1h0a.6.6,0,0,0-.1.4c0,.1-.1.3-.1.4v.2c0-.1.2-.3,0-.1l-.4.8h-.1l-.4.4c-.1,0-.3.3-.1.1l-.5.3-.4.3h-.7l-.4.2h-2.2c.3,0-.2-.1-.3-.1l-1-.3a1.3,1.3,0,0,0-1.7,1,1.5,1.5,0,0,0,1,1.8Z" transform="translate(-0.8)" fill="#fef280"/>
        </g>
        <g>
          <path d="M304.6,364a11.6,11.6,0,0,0-12.8,7c23.2-8.1,48.6-1,72,6.2s48.7,14.6,72,7c4.2-1.4,9-4.2,9-8.7s-7.7-8-13.6-8.4q-64.6-3.7-129.5-4.4" transform="translate(-0.8)" fill="#edf7f6"/>
          <path d="M304.9,362.9a12.8,12.8,0,0,0-14.6,7.7,1.6,1.6,0,0,0,2,1.9,75.8,75.8,0,0,1,30-3.2c10.3.9,20.5,3.4,30.5,6.2,19.9,5.8,39.8,13.1,60.8,13.1a82.6,82.6,0,0,0,14.9-1.4c4.4-.9,9.1-1.9,12.8-4.4s5.3-5.2,4.6-8.9-3.6-5.5-6.6-6.6-8-1.7-12.1-2l-16.7-.8c-11.2-.6-22.4-1-33.6-1.4s-22.2-1-33.3-1.3l-33.7-.7c-2.7,0-5.4-.1-8.2,0s-2,3.1,0,3.2c10.8.4,21.6.3,32.4.5l32.6.9c21.6.5,43.2,1.6,64.8,3,3.3.2,6.7.8,9.5,2.7a5.1,5.1,0,0,1,1.1,8c-2.8,3-7.4,4.2-11.2,5.1a67.3,67.3,0,0,1-14.8,1.8c-20.4.1-39.8-7.2-59.1-12.8s-39.1-10.4-58.6-6a42.9,42.9,0,0,0-7,2l1.9,1.9a10.1,10.1,0,0,1,10.9-6.2c1.5.3,2.2-2,.7-2.3Z" transform="translate(-0.8)" fill="#edf7f6"/>
        </g>
        <g>
          <path d="M222,352.7a98,98,0,0,0-37.7,13.4c13.8,3.1,26.9-8.4,41-8.9,4.4-.1,8.8.8,13.2.5s9.1-2.4,10.7-6.5a2.3,2.3,0,0,0,.1-1.8,2.3,2.3,0,0,0-2.1-.9,67.7,67.7,0,0,0-32.4,5.7" transform="translate(-0.8)" fill="#edf7f6"/>
          <path d="M222,351.9a94.8,94.8,0,0,0-19.8,4.5,172.5,172.5,0,0,0-18.6,8.3,1.5,1.5,0,0,0,.3,2.8c6.6,2,13.9-.3,20.1-2.5s13-5.5,19.9-6,15.4,2.2,22.2-2c2.4-1.4,5.7-4.7,4.8-7.9s-2.5-2.2-4.2-2.3h-5.9a71.2,71.2,0,0,0-13.8,1.6c-4.3,1-9.3,2.1-13,4.7a1.5,1.5,0,0,0,1.1,2.7c3.6-.9,7-2.5,10.6-3.5a55.6,55.6,0,0,1,10.8-2,44.1,44.1,0,0,1,5.2-.3h2.7a15.1,15.1,0,0,1,3,.1s.5.2.4,0-.2.8-.3.9a6.4,6.4,0,0,1-1.1,1.6,8.8,8.8,0,0,1-3.6,2.4c-3,1.3-6.3,1.2-9.5,1a63.8,63.8,0,0,0-10.7-.2c-6.3.7-12.1,3.2-18,5.4a57.2,57.2,0,0,1-9.9,3.2,28,28,0,0,1-10,.2l.4,2.8c10.8-7.6,24.2-11.9,37.1-13.9,1-.1.8-1.8-.2-1.6Z" transform="translate(-0.8)" fill="#edf7f6"/>
        </g>
        <g>
          <path d="M269.8,358.7a29.9,29.9,0,0,0-16.5,10.9l34.5-4.8c9.2-1.3,18.7-2.7,26.4-7.7,1.3-.8,2.7-2,2.4-3.5s-3.2-2.3-5.3-2L264.2,358" transform="translate(-0.8)" fill="#edf7f6"/>
          <path d="M269.7,358a31.7,31.7,0,0,0-9.5,3.9c-2.8,1.7-6,3.9-8,6.5-.8.9-.5,3,1.1,2.8l26.9-3.5c8-1.1,16.3-1.8,24.1-4.1a39.4,39.4,0,0,0,10.5-4.6,7.2,7.2,0,0,0,3.5-3.8,4.1,4.1,0,0,0-1.1-4.3c-2.7-2.3-7-1.1-10.1-.7L293.9,352c-10.1,1.3-20.3,2.3-30.2,4.4a1.6,1.6,0,0,0,.5,3.2c8.2-.5,16.4-1.9,24.5-3l12.3-1.8,5.9-.8a50.5,50.5,0,0,1,5.6-.6c.4-.1,2-.1,2.2.4s-2.3,2.3-2.9,2.6a39.6,39.6,0,0,1-9.3,3.8c-7.2,2-14.7,2.7-22.1,3.8l-27.5,4,1.9,2.4a26.3,26.3,0,0,1,2.9-3.7,21.7,21.7,0,0,1,3.6-3.2,29.2,29.2,0,0,1,8.7-4.2.7.7,0,0,0-.3-1.3Z" transform="translate(-0.8)" fill="#edf7f6"/>
        </g>
        <g>
          <path d="M144.5,346.4a20,20,0,0,0-12.9,4,45.5,45.5,0,0,0,22.8-7.8c-4.7-2.4-11.2,0-13.1,4.9" transform="translate(-0.8)" fill="#edf7f6"/>
          <path d="M144.5,345.7a22,22,0,0,0-13.5,3.6c-.9.7-.7,2.3.6,2.2,8.1-.3,16.8-2.9,23.4-7.9a1.1,1.1,0,0,0-.3-2,11.4,11.4,0,0,0-8.5-.3c-2.7,1-5.3,3-5.9,6a1,1,0,0,0,1.8.7,12,12,0,0,1,5-4.5,7.5,7.5,0,0,1,6.7.1v-1.9a51.7,51.7,0,0,1-10.6,5.1,47,47,0,0,1-11.6,2.4l.6,2.2a19.1,19.1,0,0,1,12.3-4.2c.9,0,.9-1.4,0-1.5Z" transform="translate(-0.8)" fill="#edf7f6"/>
        </g>
        <g>
          <path d="M247.4,4.3a161.2,161.2,0,0,0-41.3,7.2c-2.2.6-4.8,2-4.7,4.3s3.8,3.4,6.5,3.3l88.2-2c2.9-.1,6.6-.7,7.5-3.5s-3.3-6.2-6.9-7.2a121.3,121.3,0,0,0-75.1,3" transform="translate(-0.8)" fill="#edf7f6"/>
          <path d="M247.4,3.3A155.7,155.7,0,0,0,221,6.2c-4.4.8-8.8,1.9-13.1,3.1s-7.3,1.7-8.2,5.2,2.1,5.7,5.1,6.2a23.3,23.3,0,0,0,5.3.3h7c9.2-.1,18.4-.4,27.6-.7l27.9-.6,14-.3c4.2-.1,8.5.1,12.6-.6s6.3-2.4,6.5-6-2.8-5.8-5.6-7.1a49.3,49.3,0,0,0-11.4-3.1A104.7,104.7,0,0,0,276.2.6a123.9,123.9,0,0,0-25.1.1,107.9,107.9,0,0,0-24.5,5.1,36.1,36.1,0,0,0-5.7,2.4,1.4,1.4,0,0,0,1.1,2.6c3.7-.9,7.3-2.1,11-3.1s7.4-1.7,11.2-2.4a122.1,122.1,0,0,1,22.6-1.5,116.5,116.5,0,0,1,22.7,2.8c3.2.7,6.9,1.3,9.8,3s3.8,3.2,1.3,4.6a7.6,7.6,0,0,1-3.6.8,54.3,54.3,0,0,1-5.7.2l-12.7.3-25.4.6-25.4.6-12.5.3-6.4.2a13.3,13.3,0,0,1-4-.3c-.8-.2-1.9-.6-1.7-1.5s1.8-1.8,2.7-2.1a88.1,88.1,0,0,1,11.4-3.4,164.2,164.2,0,0,1,24.1-4.2l6-.4c1.3-.1,1.3-2.1,0-2Z" transform="translate(-0.8)" fill="#edf7f6"/>
        </g>
        <g>
          <path d="M197.4,11.4a247,247,0,0,1-57-.5c3-5.1,9-7.6,14.8-7.9s11.6,1.3,17.2,2.7,11.5,2.8,17.3,2.1,9.1-2.7,13.8-3.7,10.1-.9,13.7,2.2a23.2,23.2,0,0,1-18.4,5.3" transform="translate(-0.8)" fill="#edf7f6"/>
          <path d="M197.4,10.6a246.9,246.9,0,0,1-28.5,1.1,271.4,271.4,0,0,1-28.5-2.3l1.3,2.2c2.3-3.8,6.4-5.9,10.6-6.8s10.9.1,16,1.4,10.8,3.2,16.4,3.4,11-1.5,16.4-3,10.7-2.5,14.8.9V5c-4.7,4.1-10.9,5.4-17.1,4.9-1.9-.2-2.3,2.9-.4,3.3,7.1,1.5,14.6-1,20-5.7a1.7,1.7,0,0,0,0-2.5c-4-3.3-9.2-3.7-14.2-2.9s-11,3.9-16.9,4.1c-11.9.6-23.1-6.3-35-4.3-5.3.8-10.4,3.6-13.2,8.2a1.5,1.5,0,0,0,1.3,2.2,225.9,225.9,0,0,0,28.5,1.6,227.2,227.2,0,0,0,28.5-1.8c.9-.1,1-1.6,0-1.5Z" transform="translate(-0.8)" fill="#edf7f6"/>
        </g>
        <g>
          <path d="M372,247.8" transform="translate(-0.8)" fill="#fef280"/>
          <path d="M372,250.3c3.2,0,3.2-5,0-5s-3.2,5,0,5Z" transform="translate(-0.8)" fill="#fef280"/>
        </g>
        <g>
          <path d="M197.6,82.4a50.4,50.4,0,0,1,12.2,31.2" transform="translate(-0.8)" fill="#fef280"/>
          <path d="M196.9,83c7.4,8.7,10.9,19.4,12.1,30.6a.8.8,0,0,0,1.6,0c.4-11.7-4.8-23.3-12.4-31.9-.7-.9-2,.4-1.3,1.3Z" transform="translate(-0.8)" fill="#fef280"/>
        </g>
        <g>
          <path d="M152,169a87.2,87.2,0,0,1,10.4,23.1" transform="translate(-0.8)" fill="#fef280"/>
          <path d="M151.5,169.3a97.3,97.3,0,0,1,10.4,23c.2.6,1.1.3,1-.3a82.7,82.7,0,0,0-10.4-23.3c-.4-.6-1.5,0-1,.6Z" transform="translate(-0.8)" fill="#fef280"/>
        </g>
        <g>
          <path d="M293.6,225a75.3,75.3,0,0,1-13.9,47.9,63.5,63.5,0,0,0,17-46.1" transform="translate(-0.8)" fill="#fef280"/>
          <path d="M292.7,225a74.2,74.2,0,0,1-3.2,24.8,80.3,80.3,0,0,1-10.9,22.4c-.8,1.2,1.1,2.7,2.1,1.6A75.6,75.6,0,0,0,294,251.9a68.5,68.5,0,0,0,3.2-12.6,41.7,41.7,0,0,0,.2-12.7c-.2-.9-1.4-.6-1.5.2-.3,4.1-.4,8.2-1,12.3a69.4,69.4,0,0,1-3.1,11.9c-2.8,7.7-7.1,15.3-13,21l2.1,1.5c10.2-13.7,14.8-31.5,13.6-48.5a.9.9,0,0,0-1.8,0Z" transform="translate(-0.8)" fill="#fef280"/>
        </g>
        <g>
          <path d="M270.3,285.6c-1-.2-1.6,1.6-.8,2.3a2.1,2.1,0,0,0,2.9-.7,5.6,5.6,0,0,0,.9-3.1,2.2,2.2,0,0,0-2.2,2.2" transform="translate(-0.8)" fill="#fef280"/>
          <path d="M270.5,285c-1.6-.5-2.7,1.9-1.8,3.1a2.2,2.2,0,0,0,2.5.8,3.6,3.6,0,0,0,2.2-1.6,7.2,7.2,0,0,0,.8-3.2c.1-.2-.1-.5-.2-.7l-.7-.2a2.9,2.9,0,0,0-2.3.9,4.1,4.1,0,0,0-.7,1.1,3.3,3.3,0,0,0,0,1.4l.3.5h.6a1,1,0,0,0,.7-.9h0c0-.1.1-.1.1-.2s-.1.2,0,0,0-.1.1-.2l.2-.3h0c.1-.1.1,0,0,.1s.1-.1.1-.2h.2c.1-.2-.2.1-.1,0h.8l-.9-.9a.7.7,0,0,1-.1.5v.3h0v.2l-.3,1.1h0c0,.1-.1.1-.1.2l-.2.3h0c-.1.1.1-.2,0-.1l-.3.4c0-.1.1-.2,0-.1a.1.1,0,0,1-.1.1h-.2a.1.1,0,0,0-.1.1c-.1,0,.1-.1.1-.1H270c-.1,0,.1.1,0,0s-.1-.1,0,.1,0-.1-.1-.2h0c-.1-.2.1.1,0,0v-.2c-.1-.1,0,.2,0,.1v-.2h0v-.2h.1c0-.1-.1,0-.1,0s.2-.1.1-.1.2,0,.1,0h0c.3.1.7-.1.7-.4a.6.6,0,0,0-.4-.8Z" transform="translate(-0.8)" fill="#fef280"/>
        </g>
        <g>
          <path d="M243.5,36.6A63.4,63.4,0,0,0,220,82.1c-1.1,17.5,6,34.6,18.1,47,6.6,6.8,15,12.6,24.2,15.2,1.1.4,1.5-1.3.5-1.7a69.3,69.3,0,0,1-21.1-12.9,63.4,63.4,0,0,1-14.5-19.9c-7.2-15.6-7-33.9-.2-49.6a61.8,61.8,0,0,1,17-23.1c.4-.3-.1-.8-.5-.5Z" transform="translate(-0.8)" fill="#2e282a"/>
          <path d="M244.1,36.9c9.2-6.6,20.6-7.8,31.4-5.1A43.8,43.8,0,0,1,302,50.6c6.6,10.3,8.9,22.8,7.9,34.9s-6,24.6-13.3,35a104.9,104.9,0,0,1-14.4,16.1c-2.7,2.4-5.4,4.7-8.3,7s-5.8,4.1-8.5,6.4c-.8.7.2,1.9,1.1,1.5a48,48,0,0,0,8.5-5.6c2.7-2,5.3-4,7.8-6.2A112.8,112.8,0,0,0,296.6,125c8-10.4,13.9-22.6,15.7-35.7s0-25.9-6.2-37.2a45.4,45.4,0,0,0-26.9-21.7c-10.6-3.2-22.8-2.3-32.4,3.5a32.9,32.9,0,0,0-3.3,2.3c-.4.3.2,1,.6.7Z" transform="translate(-0.8)" fill="#2e282a"/>
          <path d="M265,150.6a7.3,7.3,0,0,1-1.3,6.7.9.9,0,0,0,.4,1.5,6.3,6.3,0,0,0,6.8-1.8,5.7,5.7,0,0,0,.5-7,4.5,4.5,0,0,0-3.3-2.5c-.7-.1-1.2.8-.5,1.2s3.7,3.5,2.8,5.9a4.6,4.6,0,0,1-5.9,2.5l.4,1.4a9.4,9.4,0,0,0,1.9-8.4.9.9,0,0,0-1.8.5Z" transform="translate(-0.8)" fill="#2e282a"/>
          <path d="M266.5,159.6c-.2,2.5-.3,5.1-.4,7.6l-.2,3.8a11.4,11.4,0,0,0,.1,3.7.7.7,0,0,0,1.3,0,11.4,11.4,0,0,0,.4-3.7v-3.8c.1-2.5.1-5.1.1-7.6a.7.7,0,1,0-1.3,0Z" transform="translate(-0.8)" fill="#2e282a"/>
          <path d="M275.8,175.1c-2.9-14.8,4.3-30.1,16-39.1s28.6-10.3,42.6-4.3a47.7,47.7,0,0,1,28.8,34.9,58.5,58.5,0,0,1-.3,25,63.8,63.8,0,0,1-10.3,21.9,52.5,52.5,0,0,1-13.3,13.3c-5.7,3.9-11.9,6.4-18.2,9l-5.4,2.4c-.9.4-.2,1.7.7,1.5a60.9,60.9,0,0,0,11.6-3.9,69.3,69.3,0,0,0,9.4-4.8,52,52,0,0,0,14.3-13c10.3-13.4,16.3-30.2,14.2-47.2a52.2,52.2,0,0,0-8.8-23.8,53.5,53.5,0,0,0-17.6-15.5c-13.8-7.3-31.2-8.2-44.8.1s-22,23-21.2,38.4a48.6,48.6,0,0,0,.7,5.5c.2,1,1.8.6,1.6-.4Z" transform="translate(-0.8)" fill="#2e282a"/>
          <path d="M314.6,65.2a34.7,34.7,0,0,1,26.1-7.6c9.3,1,17.7,5.8,24.1,12.6,12.3,13.4,15.8,33,9.8,50a49,49,0,0,1-17,23.1c-.9.6-.1,2,.8,1.4,15.9-9.5,23.2-29.9,20.9-47.8s-16.1-37.3-35.6-40.6c-10.6-1.7-21.9.8-29.9,8.1-.5.5.3,1.2.8.8Z" transform="translate(-0.8)" fill="#2e282a"/>
          <path d="M346.7,221.9c9.7,12.3,7.1,29.5-.5,42a83.8,83.8,0,0,1-15.3,17.8,87.1,87.1,0,0,1-18.8,13.7,55.1,55.1,0,0,1-11.8,4.8,88.8,88.8,0,0,1-12.7,2.3c-1,.1-.6,1.6.3,1.7,7.8.9,16.1-2,23-5.5a88.9,88.9,0,0,0,19.9-13.9c11.6-10.5,22.7-24.1,23.7-40.3.5-8.3-1.7-16.8-7.3-23.1-.3-.4-.7.1-.5.5Z" transform="translate(-0.8)" fill="#2e282a"/>
          <path d="M289.9,302.3c-2.3,2.4-4.6,4.7-6.8,7.1-.4.5-.3,1.3.3,1.4a25.7,25.7,0,0,1,10.3,4.8,1,1,0,0,0,1.7-1c-.3-1.9-.5-3.8-.9-5.8s-.3-1.9-.5-2.9a4.3,4.3,0,0,0-.9-2.6.7.7,0,0,0-1.1.1,4.8,4.8,0,0,0-.1,2.9l.5,3c.3,2,.7,3.9,1,5.9L295,314a25.6,25.6,0,0,0-11.1-4.8l.3,1.4,6.4-7.5c.4-.6-.3-1.3-.7-.8Z" transform="translate(-0.8)" fill="#2e282a"/>
          <path d="M247.1,181.3c-16.2,7.6-27,23.5-31.2,40.7-4.7,19-.4,38.9,8.6,56a104,104,0,0,0,9.3,14.4A69.5,69.5,0,0,0,245.4,305a1,1,0,0,0,1.5-1.4c-3.1-3.9-6.5-7.5-9.5-11.4s-5.7-8-8.3-12.2a93.1,93.1,0,0,1-10.8-27c-3.8-17.3-1.1-35.9,8.4-51a55.2,55.2,0,0,1,21-19.7.6.6,0,1,0-.6-1Z" transform="translate(-0.8)" fill="#2e282a"/>
          <path d="M255.6,179.6c10.4-6.8,24.3-5.4,34.3,1.2s17.1,18,20.7,29.7c2.4,7.6,3.3,15.6,5,23.3a1.1,1.1,0,0,0,2.2-.3,83.8,83.8,0,0,0-3.7-22.1,65.4,65.4,0,0,0-8.6-18.8c-7-10.5-17.7-18.5-30.6-19.4a30.3,30.3,0,0,0-19.8,5.5c-.5.4,0,1.2.5.9Z" transform="translate(-0.8)" fill="#2e282a"/>
          <path d="M313.2,251.6a90.7,90.7,0,0,1-37,48.6,67.9,67.9,0,0,1-7.4,4.3,42.4,42.4,0,0,0-7.7,4.4c-.8.5-.7,2.1.6,2,5.3-.5,10.4-3.6,14.9-6.4a100.1,100.1,0,0,0,12.8-9.7,89.4,89.4,0,0,0,19.8-25.5,85.5,85.5,0,0,0,6.6-17,1.3,1.3,0,0,0-2.6-.7Z" transform="translate(-0.8)" fill="#2e282a"/>
          <path d="M261.8,309.1c0,.1.1.1.1.2s-.1-.1.1,0,.1.4,0,.2.1.1.1.2,0-.2,0,0v.6c-.1.2-.1.3-.2.4a1.9,1.9,0,0,1-.3.8,12.6,12.6,0,0,0-1.3,3.7,2.5,2.5,0,0,0,2.4,2.9,3.8,3.8,0,0,0,3.6-3,4.8,4.8,0,0,0-.8-3.3,9.7,9.7,0,0,0-1.1-1.5c-.5-.5-1-1.1-1.7-1.1a.9.9,0,0,0-.8.9c0,.9,1.1,1.7,1.6,2.4a5,5,0,0,1,.8,2v.3h0a.6.6,0,0,1-.1.4s.1-.1,0,.1l-.2.2c.1,0,.1-.1,0,.1s-.1.1-.2.2l-.3.2h-.2s-.2.1-.1,0l-.4.2h-.2c-.2-.1-.3-.1-.4-.3s.1.1-.1,0v-.2c-.1,0-.1-.2-.1,0v-.2s-.1-.2,0-.1h0v-.3h0V315c0-.2.1-.3.1-.4a9.4,9.4,0,0,1,.6-1.5c.2-.5.5-1.1.7-1.7a3,3,0,0,0-.5-3.4.8.8,0,0,0-1.1,0,.7.7,0,0,0,0,1.1Z" transform="translate(-0.8)" fill="#2e282a"/>
          <path d="M137.1,135.5A81.2,81.2,0,0,0,131,162a79,79,0,0,0,3.8,26.9,77.2,77.2,0,0,0,29.8,39.3,72.4,72.4,0,0,0,11.8,6.8,51.5,51.5,0,0,0,13.2,4.5,1.2,1.2,0,0,0,.7-2.3c-3.8-1.4-7.6-2.6-11.2-4.2a79.3,79.3,0,0,1-10.4-5.5,78.7,78.7,0,0,1-30.8-91.8c.2-.5-.6-.7-.8-.2Z" transform="translate(-0.8)" fill="#2e282a"/>
          <path d="M143.3,132.1c11.2-13.5,31.8-16.8,47.3-9.3,17.1,8.3,27.7,25.3,30.7,43.7a81,81,0,0,1,.6,18.4c-.5,6.3-1.7,12.4-2.6,18.6a1.1,1.1,0,0,0,2.2.6,70.9,70.9,0,0,0,3.3-17.1,92,92,0,0,0-.4-17.4,68.5,68.5,0,0,0-10-28.7c-5-7.7-11.9-14.7-20.2-18.8a45.2,45.2,0,0,0-26.1-4.4c-9.7,1.3-19.1,6-25.2,13.9-.3.3.2.8.4.5Z" transform="translate(-0.8)" fill="#2e282a"/>
          <path d="M199.5,240.7l1.3,7.6a1.4,1.4,0,0,0,1,1,7.5,7.5,0,0,0,7.7-3.9,7.3,7.3,0,0,0-1.4-8.5c-1.1-1.2-3.5-2.5-5-1.5a1,1,0,0,0-.2,1.6,2.8,2.8,0,0,0,.9.7l1,.4a6.1,6.1,0,0,1,1.5,1.2,5.1,5.1,0,0,1,1.3,3.3,5.8,5.8,0,0,1-.6,1.7,4.1,4.1,0,0,1-1.1,1.2,3.5,3.5,0,0,1-1.6.8l-.6.2h-1.2l1,.9-1.4-7.5a1.3,1.3,0,0,0-1.7-1,1.5,1.5,0,0,0-.9,1.7Z" transform="translate(-0.8)" fill="#2e282a"/>
          <path d="M140.2,68.4a68.5,68.5,0,0,0-7.8,52.3c1.2,4.7,2.8,10,5.8,13.9a.9.9,0,0,0,1.4-.8c-.6-2.1-1.5-4.1-2.2-6.1s-1.4-4-2-6.1a75.4,75.4,0,0,1,.2-38.8A69.2,69.2,0,0,1,141.3,69c.4-.7-.7-1.4-1.1-.6Z" transform="translate(-0.8)" fill="#2e282a"/>
          <path d="M156.4,60.6a40.7,40.7,0,0,1,31.5-3,42.8,42.8,0,0,1,23,17.1c3.1,4.5,5,9.5,6.8,14.6.4,1,2.1.9,2-.3-.4-5.1-2.5-9.9-5.1-14.3a45.2,45.2,0,0,0-10.3-11.5c-8.7-6.8-19.5-9.4-30.4-8.4a45.6,45.6,0,0,0-17.7,5.4c-.3.2,0,.6.2.4Z" transform="translate(-0.8)" fill="#2e282a"/>
          <path d="M224.5,116.3a109.7,109.7,0,0,1,.6,16.2c-.1,2.6-.2,5.3-.5,7.9a79,79,0,0,0-.9,8.2c-.1,1.2,1.6,1.4,2,.3a42.7,42.7,0,0,0,1-8c.1-2.8.2-5.6.2-8.4a98.7,98.7,0,0,0-1.4-16.3c-.1-.6-1.1-.5-1,.1Z" transform="translate(-0.8)" fill="#2e282a"/>
          <path d="M129.1,140.5A58.5,58.5,0,0,0,118,173.3a59.5,59.5,0,0,0,8.3,31.9,48.6,48.6,0,0,0,12,13.9c.7.6,1.4-.5.9-1.1a82,82,0,0,1-10.1-12.6,57,57,0,0,1-6.5-14.2,58.7,58.7,0,0,1-.4-32.7A62.5,62.5,0,0,1,130,141c.4-.6-.5-1.1-.9-.5Z" transform="translate(-0.8)" fill="#2e282a"/>
          <path d="M106.3,221c-15.7,16-19.3,41.2-11,61.7s28.1,36.9,50.1,43.1a93.9,93.9,0,0,0,42.8,2c.8-.1.6-1.5-.2-1.4-12.4,1.5-25,1.6-37.2-1.2A79.4,79.4,0,0,1,119,310.7a71,71,0,0,1-20.3-24.6,59.3,59.3,0,0,1-5.8-31.3,53.6,53.6,0,0,1,14.5-32.7.8.8,0,0,0-1.1-1.1Z" transform="translate(-0.8)" fill="#2e282a"/>
          <path d="M112.6,222.6c12-8.2,27.1-8.5,40.2-3,.4.1.7-.6.3-.8-12.5-7-29.3-4.9-40.7,3.3-.3.2,0,.7.2.5Z" transform="translate(-0.8)" fill="#2e282a"/>
          <path d="M185.6,240.8a101,101,0,0,1,12.6,59.9,79.1,79.1,0,0,1-1.3,8.7c-.6,2.9-1.3,5.7-1.7,8.6a1.2,1.2,0,0,0,2.3.6c2.2-4.8,2.9-10.4,3.4-15.6a104.3,104.3,0,0,0,.5-15.8,97.4,97.4,0,0,0-6.8-31.1,84.6,84.6,0,0,0-8-15.9.6.6,0,0,0-1,.6Z" transform="translate(-0.8)" fill="#2e282a"/>
          <path d="M192.8,323l1.5,6.6a1.1,1.1,0,0,0,1.5.6,6.5,6.5,0,0,0,3-6.9,7.3,7.3,0,0,0-1.9-3.3c-1-.9-3.1-2.2-4.3-1.1a1.4,1.4,0,0,0-.2,1.5,1.6,1.6,0,0,0,1,.8h.5l.3.2c-.1-.1-.1-.1,0-.1l.3.2.6.4h.1l.3.2c0,.1.1.2.2.3s-.1-.2.1.1a6.4,6.4,0,0,1,.6,1.1,4.2,4.2,0,0,1-.1,2.5,3.9,3.9,0,0,1-1.5,2.1l1.5.6-2-6.5a.8.8,0,0,0-1.5.4Z" transform="translate(-0.8)" fill="#2e282a"/>
          <path d="M205.8,290.8a271.8,271.8,0,0,0,10.5,45.6,276.1,276.1,0,0,0,18,43.1c4.1,7.7,8.3,15.6,13.7,22.5.7.8,2-.3,1.5-1.2-3.7-6.8-7.9-13.3-11.6-20.1s-7.2-13.7-10.3-20.8A285.3,285.3,0,0,1,212.3,316c-2.2-8.4-3.9-16.9-5.3-25.5-.1-.8-1.3-.4-1.2.3Z" transform="translate(-0.8)" fill="#2e282a"/>
          <path d="M240.1,320.6c.9-1.5,2.5.4,2.3,1.5a5.6,5.6,0,0,1-2.1,2.7c-1.2,1.1-2.5,2.3-2.5,4,0,3.3,4,4.2,6.5,4.5l-.6-.3c1.3,2-2.8,3.3-3.9,4.1a3.5,3.5,0,0,0-1.9,3.3c.1,1.4,1.3,2.1,2.5,2.6s3.1,1.6,3.1,3.7c0,3.8-3.8,7.2-2.3,11s5,4.3,6.3,1.3c.3-.7-.4-1.3-1-.8s-3.8-.8-3.8-2.4,1.5-4.7,2-7a6.1,6.1,0,0,0-.7-5.1c-1.1-1.5-3.1-1.5-4.3-2.7s2.4-3.4,3.5-4.2,2.7-2.6,1.9-4.2-1.1-.7-1.9-.8a8.4,8.4,0,0,1-3-1.1c-2.5-1.9.2-4.1,1.6-5.5s2.6-3.4,1.1-4.9-2.5-1.2-3.2.1.2.4.4.2Z" transform="translate(-0.8)" fill="#2e282a"/>
          <path d="M258.8,321.3c-1.5.1-2.3,1.4-2.4,2.9s1.3,3.5,2.7,4.7a8.5,8.5,0,0,1,2.4,2.6c.5,1,.7,2.6-.7,3s-3.6-.6-5.4-.1a2.9,2.9,0,0,0-1.9,4c.9,2.2,3.3,3.2,4.5,5.2s-2.7,2.7-4.3,2.7-3.5.5-4.4,2.1a5.6,5.6,0,0,0,.5,5.7c1.6,2.2,4.2,3.2,6.6,4s1.5-1.3.5-1.6-4.7-1.4-6-3.3-1.2-4.2.7-5.1,7.6,1.1,8.1-2.9c.2-1.9-1.3-3.5-2.7-4.6a7.1,7.1,0,0,1-2.2-2.7,1.4,1.4,0,0,1,1.6-2.1c1.7.1,3.3.9,5,.4a3.3,3.3,0,0,0,2.1-3.7c-.3-2.1-1.9-3.4-3.6-4.6a5.5,5.5,0,0,1-2.5-2.9c-.2-1.1.1-2.7,1.4-2.8s.6-.9,0-.9Z" transform="translate(-0.8)" fill="#2e282a"/>
          <path d="M197.9,334.7c1.2.2,1.6,1.6,1.5,2.7a3.8,3.8,0,0,1-2.2,3c-2.5,1.5-5.5,1.9-7.3,4.3a5.6,5.6,0,0,0-1.3,3.2,4.4,4.4,0,0,0,1.3,3.1c.6.8,1.2,1.4,1,2.4a3.3,3.3,0,0,1-1.6,1.9c-1.5,1-3.7.5-5.4.2a1,1,0,0,0-1,.6c-.9,3.6.5,7.8,3.9,9.6a.8.8,0,0,0,.8-1.4,7.5,7.5,0,0,1-3.1-7.7l-1,.6c3.2.5,7.9.7,8.8-3.4.4-1.7-.6-2.8-1.6-4s-.1-4.2,1.7-5.3,7-2.1,8.2-5.6,0-5.3-2.7-5.5c-.9-.1-.9,1.2,0,1.3Z" transform="translate(-0.8)" fill="#2e282a"/>
          <path d="M235.7,318.3a68.4,68.4,0,0,0-5,42.5c.8,4,1.8,8.3,3.8,11.8.3.6,1.1.2,1-.4-.5-2.2-1.4-4.4-2-6.6s-1.1-4.2-1.5-6.3a69.7,69.7,0,0,1-1.1-13.7,71.7,71.7,0,0,1,5.6-26.7c.3-.6-.6-1.2-.8-.6Z" transform="translate(-0.8)" fill="#2e282a"/>
          <path d="M228.4,314.7c-6.4,10.9.2,23.2,4.7,33.4a241.1,241.1,0,0,1,12.6,36.1c1.8,7.1,3.2,14.2,4.7,21.3.2.9,1.7.7,1.6-.2-1.2-12.3-4.7-24.6-8.7-36.3a167.8,167.8,0,0,0-6.6-17.1c-2.6-5.7-5.7-11.2-7.9-17.1s-3.2-13.6.3-19.7a.4.4,0,0,0-.7-.4Z" transform="translate(-0.8)" fill="#2e282a"/>
          <path d="M276.7,317.5a343.5,343.5,0,0,0-16.1,47.4,305.6,305.6,0,0,0-8.5,49.4c-.9,9.4-1.7,18.8-1.1,28.3a.8.8,0,0,0,1.5,0c.7-8.3.9-16.6,1.6-24.8s1.8-16.7,3.1-25a371.3,371.3,0,0,1,10.7-48.7c2.7-9,5.7-17.8,9.1-26.5,0-.2-.2-.3-.3-.1Z" transform="translate(-0.8)" fill="#2e282a"/>
          <path d="M259.8,321.2a409.1,409.1,0,0,0-9.5,49.1,113.8,113.8,0,0,0-1.4,14.2c0,.9,1.4,1.2,1.6.3.7-4,.9-8.1,1.3-12.1s1-8.5,1.5-12.8c1.2-8.2,2.5-16.4,4-24.5.9-4.7,1.9-9.4,3-14,0-.3-.4-.5-.5-.2Z" transform="translate(-0.8)" fill="#2e282a"/>
        </g>
        <g>
          <path d="M121.2,367.6c-19,3.1-37.9,6.5-56.7,10.5,2.9,5.6,10.7,6.5,16.7,4.6s11.2-6,17.2-7.9c7.8-2.5,16.3-1.2,24.5-1.2s17.4-1.7,22.3-8.3L110.8,368" transform="translate(-0.8)" fill="#edf7f6"/>
          <path d="M120.9,366.6c-19,2.7-37.9,6.1-56.8,10a1.5,1.5,0,0,0-.9,2.2c2.5,4.6,7.7,6.4,12.6,6.3s11.4-3.3,16.7-6a35.6,35.6,0,0,1,8.9-3.4,41,41,0,0,1,10.5-.8c6.3,0,12.5.7,18.8-.3s12.1-3.4,15.9-8.5a1.6,1.6,0,0,0-1.4-2.5l-17.5,1.3c-5.8.4-11.6.7-17.3,1.6-1.8.3-1.3,3.1.4,3a165.5,165.5,0,0,0,17.2-1.1l17.2-1.5-1.4-2.5c-6.8,9-20.2,7.7-30.1,7.4-6.3-.2-12.6.1-18.5,2.6s-10.4,6-16.1,7.3-10.8.2-13.3-4.4l-.9,2.2q28.2-5.8,56.6-10.9c1.3-.2.7-2.2-.6-2Z" transform="translate(-0.8)" fill="#edf7f6"/>
        </g>
        <g>
          <path d="M26.7,283.8,2.1,299.3c5.4-.6,10.8-1.3,15.7-3.4s9.4-5.9,11-11a12.6,12.6,0,0,0-10.2,4.8" transform="translate(-0.8)" fill="#edf7f6"/>
          <path d="M26,282.7,1.4,298.1c-1.1.6-.8,2.8.7,2.6,6.1-.7,12.4-1.5,17.9-4.3a20.4,20.4,0,0,0,10.2-11.2,1.4,1.4,0,0,0-1.4-1.8,15.2,15.2,0,0,0-6.6,1.5c-1.8.9-4.1,2.4-4.6,4.5s.7,1.6,1.6,1.2,2.7-2.2,4.3-3.1a12.1,12.1,0,0,1,5.3-1.2l-1.4-1.8c-3.5,10.4-16,12.2-25.3,13.4l.8,2.6,24.4-15.7a1.2,1.2,0,0,0-1.3-2.1Z" transform="translate(-0.8)" fill="#edf7f6"/>
        </g>
        <g>
          <path d="M407,207.2a38.6,38.6,0,0,0-30,6.8c2.9,1.6,6.5,1.2,9.6,0s5.8-3.1,8.9-4.2c13.8-5.1,30.7,5.2,43.2-2.5l-38.7-1c-3.6-.1-7.3-.2-10.7.9s-6.6,3.4-7.7,6.8" transform="translate(-0.8)" fill="#edf7f6"/>
          <path d="M407.3,206.1c-10.5-2-22.5,0-31.2,6.2a2,2,0,0,0,0,3.3c4.2,2.3,9,1.2,13.1-.7,2.3-1,4.5-2.4,6.8-3.3a26.6,26.6,0,0,1,5.6-1.2c8.4-.8,16.6,1.8,24.9,1.9a25.4,25.4,0,0,0,13.3-3.2,2.1,2.1,0,0,0-1.1-3.8l-26.1-.8-13.1-.4c-3.9-.2-8.1-.2-11.8,1.3a13.4,13.4,0,0,0-8.2,8.1c-.8,2.7,3.4,3.8,4.3,1.1s5.3-5.4,8.8-5.9c5-.6,10.1-.1,15.1,0l31,.7-1-3.9c-6.7,4.1-14.9,2.7-22.2,1.8a78.5,78.5,0,0,0-11.9-.9,27.6,27.6,0,0,0-11.9,3c-4,2-9.2,5.5-13.7,2.9v3.3a38,38,0,0,1,13.5-6.7,35.4,35.4,0,0,1,15.2-.6c1.4.2,2-1.9.6-2.2Z" transform="translate(-0.8)" fill="#edf7f6"/>
        </g>
      </g>
    </g>
  </g>
</svg>
