<svg id="Capa_1" data-name="Capa 1" xmlns="http://www.w3.org/2000/svg" viewBox="0 0 479.7 480.6">
  <defs>
    <style>
      .cls-1 {
        fill: none;
        stroke: #2d221f;;
        stroke-miterlimit: 10;
        stroke-width: 25px;
      }
    </style>
  </defs>
  <path class="cls-1" d="M478.3,369.4l-63.6-63.6c-22.7-22.7-61.3-13.6-70.4,15.9-6.8,20.4-29.5,31.8-49.9,27.3-45.5-11.4-106.8-70.4-118.1-118.1-6.8-20.5,6.8-43.2,27.2-50,29.5-9.1,38.6-47.7,15.9-70.4L155.8,46.9C137.7,31,110.4,31,94.5,46.9L51.4,90.1C8.2,135.5,55.9,255.8,162.6,362.6S389.7,519.3,435.2,473.9l43.1-43.2C494.2,412.5,494.2,385.3,478.3,369.4Z" transform="translate(-23 -22.5)"/>
</svg>
