<svg id="flower" xmlns="http://www.w3.org/2000/svg" viewBox="0 0 617.3 784.3">
  <g id="flower-path3">
    <path d="M157.9,337.7a33.8,33.8,0,0,0-20.5,10.6,18.4,18.4,0,0,0-4.9,10.4c-.5,2.7-.6,5.4-1.3,8a28.7,28.7,0,0,1-2.4,5.7c-3.7,7-9.9,13.8-9.4,22.2s5.3,12.2,11.1,15.9,12.9,6.5,18.8,10.9c3.9,2.9,7,6.8,10.3,10.5a61.2,61.2,0,0,0,10,9c14.2,10,33.6,13.1,49.8,6.3s27.2-20.7,29.5-37.1a9.7,9.7,0,0,0-.2-3.8l-.2,1.1c6.8-10.1,8.8-22.7,7.7-34.6-1.3-13.5-6.3-26.2-11.4-38.6-2.4-5.8-4.6-11.7-8.6-16.6s-8.8-7.7-14.6-7.7-9.3,3.5-13.3,6.6a21,21,0,0,1-5.6,3.7,6.5,6.5,0,0,1-6.4-1.3c-2.3-1.7-4.3-3.6-6.9-4.8a25.7,25.7,0,0,0-8.1-2.2,22.2,22.2,0,0,0-15.6,4.2,24.2,24.2,0,0,0-8.8,13.3c-1.6,6.4.5,12.3,1.2,18.6a20.8,20.8,0,0,1-1.2,9.3c-1.1,2.9-2.7,5.5-4,8.3a32.9,32.9,0,0,0-3.9,16,38.8,38.8,0,0,0,14.5,28.3c9.2,7.3,20.9,10.7,32.6,11,13.3.5,26.3-3.1,38.7-7.6l9.6-3.8-1.1-.2,5,3.5a1.2,1.2,0,0,0,1.5,0c-1.3.7-.7-.4-1.6-.3s.1-.3-.1-.2.1.4.1.3v1.9c-.1,1.6-.2,3.2-.4,4.8s-.5,3.1-.7,4.6a11.6,11.6,0,0,0-.4,1.8,6.4,6.4,0,0,0-.2.7c-.1.5.1-.2-.1.3-4.6,8.8-12.7,14.6-21.4,18.9a136.7,136.7,0,0,1-13.8,5.5,138.6,138.6,0,0,1-13.9,4.2c-8.5,2.1-18.3,3.6-26.7.1a18.5,18.5,0,0,1-9.3-8.6c-2.5-4.4-4.6-9.1-9.6-11s-11.3-.8-16.7-.9a63.1,63.1,0,0,1-16.7-2.5c-10.5-3.1-19.8-9.6-25.2-19.3a31.3,31.3,0,0,1-4-14.6c0-5.4,1.6-10.5,3.6-15.4,4.2-9.9,10.1-19.1,11.4-30,.3-2.6.5-5.4,1.8-7.8a13.9,13.9,0,0,1,3.1-4.1,46.1,46.1,0,0,1,9.5-6.3c6.4-3.7,13.7-7.9,14.5-16.1.6-5.4-2.3-11.3.3-16.5s6.3-6.4,10.3-8.1a149.4,149.4,0,0,1,16.4-5.3,84.1,84.1,0,0,1,18.7-3.2c10.7-.3,22.2,3.1,29.5,11.4a16.2,16.2,0,0,1,4.5,11.8,19.1,19.1,0,0,1-.6,3.3c-.3.9-.9,1.8-1.1,2.7a4.4,4.4,0,0,0-.2,1.6,10.6,10.6,0,0,0,1.8,6c1.9,2.9,5.3,4.1,8.6,4.3a58.3,58.3,0,0,0,5.9-.3l5.7-.2a69.7,69.7,0,0,1,12.1.9c6.2.9,14.7,3.1,17,9.8,1.7,5,.2,10.7-1.1,15.7s-3,11.1-2.5,16.9c1,11,6.8,22.1,2.6,33-1.2,3.4-3.7,7.1-7.6,7.4l.7,2.8h.4l-2.2-.9c3.6,15.7,3.7,33-3,47.9-5.9,13.2-17.5,23.6-31.7,27a35.6,35.6,0,0,1-20.7-1c-4-1.5-7.8-3.5-11.7-5.3a41.4,41.4,0,0,0-12.5-3.4c-4.6-.5-9.3,0-13.9.4a97,97,0,0,1-13.2.4c-8.3-.4-16.8-2.2-24-6.5s-11.4-9.5-13.7-16.4a19.3,19.3,0,0,1-1.3-8.9,15.8,15.8,0,0,1,3.4-7.7,22.7,22.7,0,0,1,4.1-4.1c1.5-1.1,0-3.7-1.5-2.6-5.1,3.9-9.4,9.9-9.1,16.6s4.2,14.8,9.6,20.2,13.8,9.4,21.9,11.1,18.4,1.3,27.6.6c4.9-.4,9.9-.6,14.8.7s8.3,3.2,12.4,5.1a50.3,50.3,0,0,0,11.8,4.2,36.8,36.8,0,0,0,11,.5c14.9-1.5,28.7-10.9,36.4-23.7,8.8-14.8,10.2-32.9,7.5-49.6-.4-2.1-.8-4.2-1.3-6.3s-1.3-1.3-2.2-.9h-.4c-1.4.6-.7,3,.8,2.8,9.9-.8,12.8-13.7,12-21.8-.6-6.5-2.8-12.8-3.7-19.2a29.1,29.1,0,0,1-.1-9.3,86.7,86.7,0,0,1,2.1-8.8c1.4-5.4,2.9-11.3,1.4-16.9a14.1,14.1,0,0,0-6.2-8.2c-6.8-4.5-15.8-5.3-23.7-5.4-4-.1-7.9.2-11.8.4s-6.9-.4-8.5-3.4a5.2,5.2,0,0,1-.6-1.3,1.9,1.9,0,0,0-.2-.7c0-.1-.1-.9-.1-.6a14.7,14.7,0,0,1,0-2.1c0-.5.1-.2,0,0a12.6,12.6,0,0,0,1.3-3.4,17,17,0,0,0,.3-7.1c-1.7-10.1-11.6-17-20.6-20.2-12.4-4.3-25.8-1.9-38,1.7-5.5,1.6-11.2,3.2-16.4,5.7s-8.3,4.9-10.2,9.3a16,16,0,0,0-.9,8.1c.3,3.1,1.1,6.4.6,9.5s-3,6.4-5.9,8.6c-6.3,4.7-14.5,7.1-19.4,13.6a16.9,16.9,0,0,0-2.8,5.9c-.7,3-.7,6.1-1.3,9-1.2,5.6-3.6,10.8-6.1,15.8-4.8,10-9.9,20.2-7.9,31.6s9.1,20.1,18.1,25.8,22.3,8.6,34.1,8.3c5.5-.1,11.9-1.1,15.9,3.7,1.6,1.9,2.6,4.4,3.9,6.6a24.4,24.4,0,0,0,4.3,5.7c6.9,6.6,17.2,7.2,26.2,6.1s19.8-4.6,29.2-8.3,19-8.5,25.8-16.3c2.4-2.8,4.9-6,5.7-9.7a72.5,72.5,0,0,0,1.3-10.3c.1-1.7.4-6.7-2.8-5.2h1.5l-2.7-1.8c-.8-.6-1.9-1.7-2.9-1.8a4.5,4.5,0,0,0-1.9.5l-2.2.9-4.3,1.7c-2.8,1.1-5.6,2.1-8.5,3-10.7,3.5-22,5.9-33.4,5.1s-20.6-3.8-28.6-10.3a35.8,35.8,0,0,1-13.1-24.1,27.4,27.4,0,0,1,2.2-14.1c2.1-4.7,5.2-9.1,6.3-14.3s-.5-11.2-1.2-16.8a20.7,20.7,0,0,1,2.9-14.2,20.2,20.2,0,0,1,25.1-7.5,24.5,24.5,0,0,1,6,4.1,11.5,11.5,0,0,0,6.2,2.9c4.1.4,7.6-2.3,10.6-4.7s6.8-5.9,11.3-5.9,9.5,3.1,12.5,6.9,5.4,9.4,7.4,14.3,4.6,11.1,6.5,16.7c3.7,10.7,6.2,21.8,5.3,33.2a52.8,52.8,0,0,1-3.6,15.1l-1.7,3.5a18,18,0,0,0-2.1,3.5c-.3.6,0,1.5.1,2.2a5.5,5.5,0,0,1-.1,2.2c-3.2,18.4-18.6,33.4-36.9,36.6a49.9,49.9,0,0,1-28.5-3.6,52.2,52.2,0,0,1-12.6-7.6c-4.1-3.5-7.4-7.7-11.1-11.7a48.1,48.1,0,0,0-10.9-8.6c-3.5-2-7.1-3.8-10.7-5.8-6.4-3.6-13.2-8.5-12.8-16.6.1-4.5,2.5-8.5,4.8-12.2s5-7.8,6.5-12.2.8-10.7,3.5-15.2,5.8-6.6,9.4-8.8a28.5,28.5,0,0,1,11.3-4.1c1.9-.2,1.9-3.2,0-3Z" transform="translate(-86.2 -53.7)" fill="#ffece7"/>
  </g>
  <g id="flower-path2">
    <path d="M583.4,576.9c1.6,2.4,4.3,4.2,6.5,5.8a72.5,72.5,0,0,0,12.8,7.7c3.9,1.9,8.2,3.6,12.6,3.7a95.3,95.3,0,0,0,20-1.6,106.3,106.3,0,0,0,38.5-14.8c5-3.2,9.7-7.3,11.7-13.1s.8-13.2,1-19.7c.4-12,8.4-20.8,13.6-30.9s5.3-18.8-2-26.5-17.9-10.4-25.4-17.5-10.4-15.9-13.2-24.8c-5.2-17-9.6-39.4-30-44-13-2.9-26.3,2.8-37.8,8.3a327.9,327.9,0,0,0-31.6,16.7c-19.7,12.1-37.8,28.5-44.1,51.5-3.6,13.4-3.2,27.6-1,41.3,1.1,6.5,2,13.8,6,19.2s10.3,9,15.6,13l18.6,13.9c3.9,3,7.7,6.6,12.5,8.2a72.5,72.5,0,0,0,12.9,2.8,60.4,60.4,0,0,0,12.7.9,37.8,37.8,0,0,0,5.6-1.3l12.2-3.7,22.7-6.8c7-2.1,14.1-4,21-6.5s11-4.7,14.6-9.3a18.6,18.6,0,0,0,3.7-14.5c-1.1-5.3-5.1-8-9.6-10.3-2-1.1-4.4-2.2-5.8-4.2s-.4-7.6.8-10.9c2.8-7.3,5.6-14.5,8.2-21.7,2-5.4,2.9-11-.8-15.8s-7.5-6-11.8-7.9-10-4.4-14.3-8.1a66.5,66.5,0,0,1-11.2-13.6c-6.4-9.7-11.7-20.4-20.9-27.8s-19.2-11.6-29.5-7.5-13.6,14.8-16.7,24.2c-1.9,5.4-3.8,10.9-7.3,15.4s-9.3,8.8-13.6,13.5c-8.3,9.1-11.5,21.1-12.8,33.1-.7,6.3-.8,12.7-.9,19s-.1,12.7,1.7,18.7c3.7,12.6,15.2,17.7,26.4,22.4,13.2,5.5,27.3,10.5,41.8,9.3,10.7-.9,21.6-5.7,28.6-13.9a29.6,29.6,0,0,0,6.8-14c1.2-7.3-.4-14.6-1.7-21.7l-4.4-23.2c-1.3-7-2.5-14.1-4.1-21.1-2.1-8.8-6.1-19.9-15.3-23.5s-19.1,4-25,11.7c-3.9,5-7.4,10.1-11.8,14.8s-9.9,9.6-14.8,14.5c-9.2,9-18.1,19.8-20.2,33-.9,5.3-.8,11,1.5,15.9a29,29,0,0,0,9.3,10.4c7.1,5,17.2,8.1,25.4,3.9l-2.2-.9.8,2.1,2.9-.7a46.6,46.6,0,0,1,.1-35c2.4-5.6,5.8-11.1,11-14.4s9.9-3.6,13.9.2c6.3,6.1,3.4,17.9-.5,24.4-5.3,8.6-13,15.6-21.6,20.9-17.8,11.1-38.8,16-58.9,21.5s-42.1,13.4-61.4,24.1c-21.2,11.9-40.2,27.9-53.1,48.7h2.6l-25.1-39.5c-3.7-5.8-7.6-11.5-11.1-17.4a28,28,0,0,1-1.9-4.3c-2.1-4.8-4.2-9.6-6.2-14.5a276.9,276.9,0,0,1-9.9-28.2c-4.6-16.6-5.6-33.8-9.2-50.6s-9.6-30.5-22.7-40.5c-7.7-5.9-16.5-10.1-25-14.6s-18.5-9.7-27.7-14.4-18.6-9.3-28-13.8-17.3-7.2-24.1-13.3c-2.7-2.3-5.2-5.4-5.8-9a9.9,9.9,0,0,1,4.5-9.6c6.5-4.4,15.6-3.4,22.5-.4s13.5,9,15.6,16.7-.1,13.1-5.7,17.7a51,51,0,0,1-9.8,5.9c-1.7.9-.2,3.5,1.5,2.6,6.2-3.1,13.1-6.9,16.2-13.5s1.4-14-2.1-19.8c-7.3-12.2-26.6-20.2-39.5-11.9a12.9,12.9,0,0,0-4.6,17.2c3.7,7.1,11.6,11.3,18.5,14.6q29.7,14.1,58.9,29.3c9.3,4.9,18.9,9.6,27.8,15.2a54.3,54.3,0,0,1,18.8,19.6c8.3,15.3,9.7,33.3,12.2,50.2,3,20,9.4,38.8,17.2,57.4,2,4.7,3.7,10,6.4,14.3l5.2,8.1,29.8,46.9.7,1.1a1.5,1.5,0,0,0,2.6,0c25.5-41.3,72.8-60.5,117.6-72.7,21-5.8,43.3-11.4,61-24.8,7.7-5.8,15.3-13.6,18.8-22.8,2.9-7.5,3.6-18.4-3.5-23.8-11-8.5-23.2,4.4-27.6,13.8a49.2,49.2,0,0,0-1.3,39.1c.7,1.8,3.5,1.1,2.9-.7l-.8-2.2a1.5,1.5,0,0,0-2.2-.9c-8.4,4.3-19.2-.5-25.5-6.5-3.3-3.1-5.8-6.9-6.4-11.4a32.7,32.7,0,0,1,3.1-18.7c5.2-11.7,14.8-20.4,23.9-29.1a131.3,131.3,0,0,0,13-13.9c3.2-4.1,6-8.5,9.5-12.3s7.4-7.3,12.5-7.8,9.2,2,12.2,5.7c6.9,8.5,8,20.7,10,31.1l4,21.2c1.4,7.1,3.2,14.4,3.7,21.6.6,11.9-5.5,21.6-15.6,27.5s-23,6.6-34.8,4.1a135.5,135.5,0,0,1-19.6-6.3c-5.7-2.3-11.6-4.6-16.9-7.8s-9.4-7.9-11.2-14.1-1.7-11.9-1.6-17.9c.2-11.6.4-23.6,4.1-34.7a43.1,43.1,0,0,1,8.7-15.3c4-4.3,8.7-7.8,12.6-12.3,6.7-7.7,8.4-17.6,12.2-26.7,2-4.8,4.7-9.3,9.2-12s10-3.2,15.1-1.9c10.8,2.8,19.1,11.1,25.1,20.1s10.7,18.5,18.2,26.2a40.3,40.3,0,0,0,12.2,8.6c4.2,2,8.7,3.6,12.7,6.3s6.5,8,4.7,13.9-5,13.4-7.5,20.1c-1.9,5-5.5,11.5-2.4,16.8s7,5.3,10.6,7.6,6,8.5,4.2,13.8-6.9,9.3-12.2,11.7-12.5,4.2-18.8,6.1l-20.7,6.2L597.1,573a28,28,0,0,1-10.8.8,85.8,85.8,0,0,1-13.3-2.2c-3.5-.8-6.5-1.7-9.4-3.9-11.2-8.4-22.6-16.8-33.8-25.3a33.9,33.9,0,0,1-6.7-6.4,27.7,27.7,0,0,1-3.7-9.9,149.1,149.1,0,0,1-2.9-19.9c-.8-13,.7-26.2,6.2-38.1A79.2,79.2,0,0,1,542.1,443a158.2,158.2,0,0,1,27.2-18.7,314.9,314.9,0,0,1,30.2-15.1c11.3-4.9,25.1-8.9,36.6-2.2,7.3,4.2,11.5,11.8,14.4,19.5,5.9,15.8,7.8,35.3,21.4,46.8,7.2,6.2,16.9,9.1,23.6,15.9a16.7,16.7,0,0,1,5.2,12.8c-.2,4.8-2.4,9.3-4.8,13.4-4.9,8.6-11.3,16.7-12.2,26.9-.6,6.5.8,13.1-.6,19.5s-6.6,10.8-12.2,14.2A105.6,105.6,0,0,1,635,589.5a91.3,91.3,0,0,1-19.5,1.7c-4.2-.2-8.4-1.9-12.2-3.8a82.1,82.1,0,0,1-11-6.6c-2.1-1.5-4.9-3.2-6.3-5.4s-3.7-.1-2.6,1.5Z" transform="translate(-86.2 -53.7)" fill="#ffece7"/>
  </g>
  <g id="flower-path1">
    <path d="M493.7,182.8c6.4-5.5,11.5-12.3,18-17.9s11.7-10.7,14.8-18,2.9-13.8-.4-19.8-11-8.1-17.1-12c-12.1-7.8-11.1-25.4-21.5-34.8s-28.1-4.2-41.7-3a34.1,34.1,0,0,1-24.1-6.5c-6.4-4.5-12.1-10.2-19.2-13.7a36.2,36.2,0,0,0-40.4,6.6c-6.4,6.2-10.5,14.3-14.5,22.1s-8.3,16.4-11.7,24.9c-6.6,16.4-11,34.1-9,51.9,1.7,15.1,7.7,30,19.2,40.3s25.1,14.5,39.6,15.7,31.6-1,46.9-4.6,35.1-8.5,49.2-19.1c5.7-4.3,10.7-9.7,13.4-16.4s2.4-16.9,1-25.3c-1.7-10.5-3.3-20.9-5.1-31.3-1.3-7-2.9-14.4-7.1-20.2-10.3-14.4-28.1-9-42.1-4.7-9.8,3.1-19.5,4.5-29.6,5.4s-18.2,1.4-26.9,4c-28,8.2-48.9,36.1-49,65.3,0,6.8,1.4,14.2,5.4,19.9s10.1,7.7,16.9,7.7c4.6-.1,9-.5,13.4.8s8.3,3.4,12.2,5.5c6.3,3.5,12.9,7,20.2,7.1,8.8,0,17.2-4.5,24.8-8.5a205.6,205.6,0,0,0,23.1-13.6A227.3,227.3,0,0,0,474,174.2c3.2-2.8,6.3-5.6,9.4-8.6s6.3-5.7,8.2-9.4c3.8-7.2-1.3-13.1-6.7-17.5l-23.5-19c-7.7-6.1-15.2-12.5-23.1-18.4s-14-9.4-22.3-11.1c-13.5-2.7-28,2-37.8,11.5-6,5.8-8.4,12.7-11.7,20.1s-10.6,12.3-15.3,19.2c-7,10-10.6,26.1-.8,35.7,5.9,5.8,15.5,8.1,23.2,10.7a128.5,128.5,0,0,0,26,6.5c17.6,2.4,33.8-1.8,47-13.8,6.3-5.8,11.6-12.6,16.8-19.4s10.2-13,11.1-21.1c.8-6.3-1.3-13.5-7-17s-16-1.9-23.6-3.1-17-4.3-25.8-2.9a35.7,35.7,0,0,0-18.1,8.7c-10.7,9.5-14.3,24.1-8.1,37.2a43.6,43.6,0,0,0,14.5,16.8c2.1,1.4,5.7,4.1,8.3,4.2s6.1-3.2,7.9-4.6c9.4-7.6,16.9-21.2,9.9-32.8-5.2-8.7-19-7.6-24.5.3s-4.7,19.4-.5,27.6c2.7,5.4,7.5,8.9,12.6,12s11.9,6.8,14.3,13.3c4,11.2-2.5,23.7-8.2,33-7.2,11.7-16,22.3-24.1,33.4-6.5,9.1-13.5,19-15.7,30.1-.2,1.1.6,2.3,1.8,1.9,8.5-3.1,15.1-9,21-15.8s11.6-15.4,19.2-21.1,15.5-8.5,23.9-7.6c10.9,1.3,16.2,11.5,13.6,21.7s-9.7,19.2-16.4,27-15.1,15.9-25.3,19c-21.1,6.3-35.4-15.7-38-33.6-2.4-15.6,1-31.5-3.9-46.9-1.8-5.6-4.9-11.3-10.3-14.2s-13.9-2.3-19.6,1.3c-15.7,9.9-16.1,30.1-7.9,44.9,10.7,19.3,31.2,29.6,45.3,45.9A116.2,116.2,0,0,1,415.4,373c3.4,19.6.9,41-13,56.1l2.2,2.1c13.3-17.1,14.7-42.6,34.8-54.2,8.3-4.8,20.6-8.8,29.6-3.6,12.2,7,7,24.3,3.1,34.7-7.6,20.5-23.4,41.6-45.5,47.6-25.9,7-47.6-12.7-63-31-17.4-20.8-32.9-50.5-21.2-77.6l-2,.5a161.7,161.7,0,0,1,50.1,55.2c6.6,12.1,12.3,25.5,11.9,39.4s-6.3,25.9-13.5,36.9c-3.4,5.3-7.3,10.2-10.9,15.4s-7.2,11.5-10.6,17.4-6.6,11.9-10.1,17.8-6.3,9.6-8.7,14.9c-3.4,7.5-5.7,16.3-3.4,24.4s7.7,12.4,14.7,14.8c5.3,1.8,10.9,2.1,16.5,2.6a126.1,126.1,0,0,0,19.5,1c12-.5,22.9-5,32.8-11.7,16.2-10.8,29.2-30.3,18.2-49.4-4.2-7.4-11.8-13.7-20.7-13.6s-16.8,7.2-21.7,14.8c-6.6,10-11.6,20.6-19.3,29.9a118.4,118.4,0,0,1-13.1,13.4c-4.6,4.2-10.4,9.9-16.7,11.2-11.9,2.6-17.6-14.6-22.2-22.4a125.6,125.6,0,0,0-22.4-27.4c-7.8-7.1-16.9-14.3-27.7-15.8s-18.4,4.1-20.3,14c-3.7,18.9,11.3,34.8,26.6,43,17.8,9.6,37.4,11.8,56.7,16.6s40.8,12.7,49.1,32.1c10.8,25.3-7.2,51.1-21.6,70.5-7.3,9.9-14.8,19.9-19.7,31.2-2.1,4.9-4.7,10.7-4.2,16.2s3.4,7.9,7.1,10.2c9.1,5.6,20.9,7.8,31.4,8.2a80.2,80.2,0,0,0,32.5-5.3A76.7,76.7,0,0,0,464.5,709a79.1,79.1,0,0,0,5.6-31.5c-.3-8.3-.8-21.7-10.3-24.9s-19.2,4.7-24.7,11.4c-7.1,8.6-11.9,18.5-16.1,28.7-9.1,22.1-16.4,46-38.1,59.2-9.6,5.8-20.6,7.9-31.2,3.5l.9,2.2c10.9-24.5,8.4-52.3-1.9-76.7a131.9,131.9,0,0,0-20.9-33.7c-3.8-4.5-8.5-9.1-14.6-9.8a13.1,13.1,0,0,0-11.5,4.4c-6.7,7.4-7.2,19.4-6.1,28.7,1.5,12.9,3.7,25.9,8.3,38s11,22.3,20.9,29.9,19.1,11.1,28.4,17c5.1,3.2,10.3,7.1,13.4,12.4,4.1,7,3.2,15-.1,22.1s-8.9,15.7-13.7,23.1-10.4,15.4-15.9,22.9c-1.2,1.5,1.4,3,2.6,1.5A446.7,446.7,0,0,0,365,799.1c5.6-9.6,10.3-20.5,5-31.3-4.1-8.3-12.6-13.6-20.3-18-9.6-5.5-20-10.1-27.9-18s-14.3-20.5-17.7-32.3-6-23.9-6-35.7c.1-9,3.2-26,15.9-23.3,6.9,1.6,11.9,8.9,16,14.2a138.1,138.1,0,0,1,10.3,15.8c14.3,25.9,20,57.9,7.7,85.6a1.5,1.5,0,0,0,.9,2.2c19.1,7.9,38.7-4.3,50.6-18.9,13.6-16.8,18.1-38.8,27.8-57.8,4.9-9.5,11.5-20.6,21.7-25,5.7-2.5,12.2-2.3,15.2,3.9s2.7,11.1,2.9,16.4a77.7,77.7,0,0,1-23.5,58.3c-16,15.3-38.9,22.3-60.7,19.8a70.9,70.9,0,0,1-16.4-3.7c-5.5-2-13.1-4.8-13.8-11.5s3-13.3,5.7-18.5a126.7,126.7,0,0,1,9-15c12.9-18.8,29.5-36.5,33.3-59.9,3.1-19.5-5.6-36.8-22.2-47s-34.8-13.1-52.8-16.8-37.8-9.7-50.6-23.6c-6.2-6.7-10.4-16-9.7-25.3.4-6.3,3.8-12.3,10.1-14.1s11.7.4,16.7,2.8c10.1,4.9,18.9,13.6,26.2,22s12.8,18.5,18.6,28.4c4,6.7,9.9,13.8,18.6,12.2,5.1-.8,9.3-4.4,13.2-7.5a119.4,119.4,0,0,0,12.9-11.7,134.5,134.5,0,0,0,19.7-27c4.8-8.8,10.3-20,20.9-22.6s18.9,4.9,23,13.4c4.9,10.1,2.8,20.9-3.5,29.8s-16,15.4-25.9,20.1c-12.1,5.9-25,5.4-38.1,4.1-9.5-1-21-1.2-27.1-9.8-4.9-6.9-3.7-16.1-1.1-23.7,3.9-10.9,11.4-20.5,17-30.5a305.2,305.2,0,0,1,19.7-31.3c6.7-9.4,12.9-19.3,16.4-30.4a57.5,57.5,0,0,0,.1-34.1c-6.3-21.5-20.2-41.6-35.7-57.6A164.6,164.6,0,0,0,341.9,345a1.6,1.6,0,0,0-2.1.6c-11,25.5.5,53,16,73.9s37.2,43.4,64.5,40.4c24.3-2.6,42.8-23.7,52.2-44.8,4.7-10.5,10.4-25.3,5.1-36.5s-16-11.8-25.9-9.6a46.1,46.1,0,0,0-29.9,21.5c-7.3,12.5-10.3,27-19.4,38.6-1.1,1.5.8,3.6,2.2,2.1,24.7-26.9,15.8-69.6-.9-98.3a107.7,107.7,0,0,0-16.9-22.2c-8.3-8.2-17.8-14.9-26.3-23s-15.5-17.2-17.9-28.4,1-20.9,9.1-27.6,16.9-6.5,23,.4,6.4,14.4,7.2,21.7c1.8,17-1.5,34.1,6.1,50.1,3.7,7.8,9.7,14.5,17.5,18.2s16.6,3.5,24.6-.3,17-12.3,23.5-20.1,12.7-16.3,15.2-26c2-8.1.2-17-6.9-22s-13.9-4.2-20.8-2.4a45.1,45.1,0,0,0-21,13.1c-6.6,7.1-12.1,15.3-19.3,22a39.9,39.9,0,0,1-13.4,8.4l1.9,1.8c2-10.2,8.3-19.4,14.3-27.8s14.5-19,21.2-28.9c10.2-14.9,22.6-38.4,3.9-52-4.7-3.4-10.1-5.8-14.4-9.7a23.6,23.6,0,0,1-6.7-13.3c-1.4-8,.8-20.3,10.5-21.7a16,16,0,0,1,7.5.8c3.4,1,5.1,4.2,6,7.5,1.8,6.2-.5,12.7-4,17.8a36.1,36.1,0,0,1-7.7,7.9,21.9,21.9,0,0,1-3.7,2.5c-2,.8-3.6-.2-5.4-1.2A40,40,0,0,1,395.5,163c-7.4-13.4-2.9-28.9,9.3-37.7a31.1,31.1,0,0,1,20.1-6.1c8.2.5,16,3.5,24.1,3.9s17.2-1.4,21.2,6.9-.1,16.2-4.6,22.8c-8.5,12.4-18.9,26.1-32.4,33.3-15.4,8.3-33.3,6-49.5,1.4a204,204,0,0,1-24.2-8.5c-7.1-3.1-11.7-8.6-12.1-16.5s2.2-13.5,5.8-19.1,10.3-10.4,14.1-16.6,5-13.4,9.6-19.1a39.5,39.5,0,0,1,16.3-12.2c14.7-6,28.9-2.1,41.4,6.8,14.7,10.4,28.3,22.5,42.3,33.8,6.6,5.3,17.8,12,10.3,21.4-4.8,5.9-11.1,11-16.9,15.8a222.3,222.3,0,0,1-40.1,27.1c-7.5,3.9-15.7,8.8-24.3,9.2s-14.5-3.6-21.1-7.1-11.5-6-18.1-6.4-16.1,1.7-21.8-5.4c-8.4-10.5-6-27.5-1.9-39.3a68.1,68.1,0,0,1,24.8-33.1c13.3-9.5,28.5-11.6,44.5-12.9,7.9-.7,15.8-1.4,23.5-3.5s14.9-4.9,22.7-6.2,16.2-.3,21.8,6.1,6.4,12.9,7.7,19.8c1.6,8.7,2.9,17.6,4.3,26.3s3.8,18.7.8,27.7c-4.8,14.8-20.7,22.8-34.3,27.8a218.5,218.5,0,0,1-44.4,11c-27.6,4-60.1.9-75.9-25.4-17.3-28.8-6.9-63.5,6.5-91.4,6.7-13.8,13.6-31.6,28.6-38.1a33.4,33.4,0,0,1,21.8-1.8c7.5,1.9,13.4,6.8,19.3,11.5s10,7.9,16.1,9.8,12.6,1.7,18.9.9c13.4-1.8,30-6.9,39.2,6.6,6.4,9.5,7.4,22.4,16.7,29.8,5.6,4.5,13.9,5.3,17.7,11.9s2.3,14.6-1.2,20.7-10.1,11.6-15.9,16.7-9.3,10.5-14.6,15.1c-1.5,1.3.6,3.4,2.1,2.1Z" transform="translate(-86.2 -53.7)" fill="#ffece7"/>
  </g>
</svg>
