<?xml version="1.0" encoding="utf-8"?>
<!-- Generator: Adobe Illustrator 24.3.0, SVG Export Plug-In . SVG Version: 6.00 Build 0)  -->
<svg version="1.1" id="Layer_1" xmlns="http://www.w3.org/2000/svg" xmlns:xlink="http://www.w3.org/1999/xlink" x="0px" y="0px"
	 viewBox="0 0 300 300" style="enable-background:new 0 0 300 300;" xml:space="preserve">
<style type="text/css">
	.st0{fill:#9CF1F0;}
	.st1{fill:#FEF281;}
	.st2{fill:#99F0BB;}
	.st3{fill:#473737;}
	.st4{fill:#B6F2EF;}
	.st5{fill:#FFF8B3;}
	.st6{fill:#B6F2D1;}
	.st7{fill:none;stroke:#333333;stroke-width:0.3;stroke-miterlimit:10;}
	.st8{fill:#FFFF76;stroke:#333333;stroke-width:0.2;stroke-miterlimit:10;}
	.st9{fill:#333333;}
	.st10{fill:#2D221F;}
	.st11{fill:#FFB6EA;}
</style>
<path class="st0" d="M140.6,134.9c0,0-25.2,63.1,8.4,84.5c0,0,16.8,22.3,20.5-20.4C169.5,199,167.7,118.3,140.6,134.9z"/>
<path class="st1" d="M194.4,71.1c-11.4,8.9-59.1,52.5-50.5,77.2c21.5,62.3,67.4-42.3,67.4-42.3C221.3,90.1,221.9,49.6,194.4,71.1z"
	/>
<path class="st2" d="M149.1,136.1c-5.8-6.8-11.3-10.1-25-24.5c-9.8-10.3-19.7-29.8-37.6-40.1c0,0-10.6-6.9-13.4,14.3
	c0,0-8.8,82.1,60.5,74.1C133.6,160,164.3,162.6,149.1,136.1z"/>
<path class="st3" d="M187.5,64.3c-14.7,0-26.7,12-26.7,26.7v67c-0.2,0-0.5,0-0.7,0h-20.6v-40.6V65.2h-1.9v52.1v40.6H132
	c-24.3,0-44-19.8-44-44.2V65.2H86v48.5c0,25.4,20.6,46.1,45.9,46.1h5.7v50.5h1.9v-50.5h20.6c0.2,0,0.5,0,0.7,0v49.9h26.7v-1.9h-24.7
	v-48c28.5-1.4,51.3-25,51.4-53.9l0-15C214.1,76.2,202.2,64.3,187.5,64.3z M212.2,105.9c0,27.8-22,50.6-49.4,51.9V90.9
	c0-13.6,11.1-24.7,24.7-24.7s24.7,11.1,24.7,24.7L212.2,105.9z"/>
<circle class="st3" cx="165.8" cy="234.7" r="5.8"/>
</svg>
